<?xml version="1.0" standalone="no"?>
<!DOCTYPE svg PUBLIC "-//W3C//DTD SVG 1.1//EN" "http://www.w3.org/Graphics/SVG/1.1/DTD/svg11.dtd"><svg t="1766104642227"
    class="icon" viewBox="0 -41.66 3322 1107.33" version="1.1" xmlns="http://www.w3.org/2000/svg" p-id="7563"
    xmlns:xlink="http://www.w3.org/1999/xlink" width="180" height="60">
    <path
        d="M2411.325537 378.340799c4.777605-15.697845 9.55521-19.11042 25.253055-21.840481 9.55521-1.36503 17.74539-6.142635 26.618086-10.237725 11.602755-4.777605 24.57054-8.872695 35.49078-15.01533 7.507665-4.09509 13.6503-9.55521 21.840481-12.967785 13.6503-5.46012 51.871141-11.602755 47.093536-34.125751-2.047545-8.19018-12.28527-13.6503-19.792936-15.697845-5.46012-2.047545-10.92024-0.682515-17.062875-2.73006-4.09509-0.682515-9.55521-6.142635-14.332815-4.09509 7.507665 15.697845-6.82515 20.47545-18.427906 26.618085-15.01533 8.19018-29.348146 16.38036-44.363475 24.570541-8.19018 4.09509-21.157965 15.01533-30.713176 8.872695-8.872695-5.46012-4.09509-17.74539-2.73006-25.935571 1.36503-11.602755 1.36503-23.20551 2.73006-34.808265 3.412575-23.888025 9.55521-49.141081 15.01533-72.346591 2.73006-10.237725 7.507665-15.697845 15.015331-23.888026 5.46012-4.777605 10.92024-9.55521 10.237725-18.427905-2.047545-21.157965-33.443236-34.808266-48.458566-45.045991-12.28527-8.19018-20.47545-7.507665-32.760721 1.36503-6.82515 5.46012-17.062875 15.697845-17.74539 25.253055-0.682515 8.872695 8.19018 18.427905 9.55521 27.300601 2.73006 12.967785 2.73006 25.93557 2.73006 38.903356-0.682515 22.522995-4.09509 45.045991-4.09509 67.568986 0 16.38036-1.36503 33.443236-1.36503 49.823596 0 9.55521 2.73006 20.47545-0.682515 30.03066-3.412575 10.237725-10.237725 10.92024-19.11042 13.6503-24.57054 8.872695-49.823596 18.427905-73.711622 28.665631-10.237725 4.09509-20.47545 8.19018-31.39569 12.967785-6.142635 2.73006-12.967785 8.19018-19.11042 10.237725-12.967785 4.09509-21.157965-1.36503-34.125751 7.507665-6.82515 4.777605-12.28527 6.82515-7.507665 15.015331 5.46012 8.19018 19.792935 16.38036 27.3006 23.20551 9.55521 8.19018 17.74539 16.38036 27.300601 24.570541 12.28527 10.92024 18.427905 1.36503 28.66563-8.872696 21.157965-21.157965 45.728506-38.220841 68.251502-57.331261 6.142635-5.46012 15.697845-17.062875 23.888025-11.602755 12.28527 7.507665 0.682515 41.633416-2.047545 51.188626-18.427905 60.743836-68.251501 111.932462-117.392582 149.470788-22.522995 17.74539-46.411021 30.713176-70.981561 45.728505-4.09509 2.73006-16.38036 7.507665-14.332816 12.967786 0.682515 2.73006 22.522995 1.36503 25.935571 1.36503 22.522995-0.682515 45.728506-12.967785 66.203956-22.522996 21.157965-9.55521 40.950901-21.157965 58.013776-36.85581 32.078206-27.3006 64.156411-53.236171 80.536771-94.869587 15.697845-40.950901 11.602755-85.314376 24.570541-127.630307zM3308.150262 73.256589c-4.777605-10.92024 6.82515-16.38036-9.55521-22.522996-10.92024-3.412575-20.47545 4.09509-30.713175 8.872695-12.28527 5.46012-19.792935 11.602755-15.015331 24.570541 3.412575 9.55521 6.142635 14.332815 2.73006 25.253055l-12.28527 42.315931c-4.09509 14.332815-8.872695 27.3006-14.332815 41.633416-2.047545 8.19018-8.19018 30.030661-18.427905 32.76072-11.602755 2.73006-6.82515-41.633416-22.522996-47.776051-8.872695-2.73006-52.553656-2.047545-45.045991 14.332816 1.36503 4.09509 12.28527 6.142635 16.380361 9.55521 4.09509 4.09509 6.82515 8.19018 8.872695 13.6503 4.09509 10.92024-0.682515 25.93557 6.82515 34.808266 4.777605 6.82515 15.697845 4.09509 21.157965 11.602755 6.142635 8.872695-3.412575 29.348146-6.82515 38.22084-5.46012 14.332815-19.792935 14.332815-34.12575 12.285271-8.19018-1.36503-17.74539-2.047545-24.570541-8.872695-7.507665-7.507665-10.237725-19.792935-10.237725-30.030661 0-12.967785 4.09509-25.253055 13.6503-34.125751 8.19018-6.82515 17.062875-9.55521 10.920241-22.522995-6.142635-14.332815-32.078206-19.792935-29.348146-36.173296 2.73006-15.697845 16.38036-34.125751 23.888025-48.458565 6.82515-12.967785 11.602755-10.92024 24.570541-11.602756 6.82515-0.682515 9.55521-2.047545 14.332815-5.46012 4.777605-2.73006 10.92024-6.82515 15.01533-10.237725 10.237725-8.872695 6.82515-23.20551 8.19018-35.490781 1.36503-11.602755-3.412575-17.74539-14.332815-24.57054-10.237725-5.46012-19.792935-11.602755-29.348145-19.11042-10.237725-8.19018-17.74539-17.062875-29.348146-9.55521-27.3006 17.062875-21.157965 43.680961-20.47545 70.299046 0.682515 17.062875-6.82515 36.173296-10.92024 52.553656-4.777605 19.11042-4.09509 38.220841-21.840481 49.141081-12.967785 7.507665-27.3006 12.28527-41.633415 12.967785-11.602755 0-22.522995-2.047545-28.665631 10.237725-5.46012 10.237725 0.682515 21.157965-13.6503 15.01533-10.237725-4.777605-15.01533-13.6503-25.935571-2.73006-2.73006 3.412575-12.28527 16.38036-12.28527 19.792935 0 5.46012-0.682515 2.73006 4.09509 4.777606 5.46012 2.047545 9.55521 0 15.015331 3.412575 4.777605 2.73006 8.872695 8.19018 12.28527 12.28527 13.6503 15.697845 33.443236 42.998446 17.062875 63.473896-13.6503 18.427905-36.855811-41.633416-53.918686-26.618086-2.047545 1.36503-6.142635 12.28527-8.872695 15.697846-5.46012 6.82515-5.46012 7.507665-2.73006 15.01533 4.09509 11.602755 18.427905 19.792935 15.01533 32.078206-2.73006 10.237725-16.38036 20.47545-2.73006 30.713175 5.46012 4.09509 22.522995 10.237725 30.030661 9.55521 12.967785-0.682515 23.888025-19.792935 25.93557-32.078205 2.047545-8.872695-5.46012-25.93557 4.09509-32.078206 5.46012-3.412575 9.55521 2.047545 14.332815 1.36503 4.09509-0.682515 8.19018-5.46012 10.920241-8.19018 3.412575-4.09509 6.82515-8.872695 8.19018-14.332815 1.36503-4.777605-1.36503-12.967785 0.682515-17.745391 4.777605-13.6503 15.01533 1.36503 17.74539 9.555211 6.142635 16.38036 0.682515 21.84048-8.19018 35.49078-4.777605 6.82515-22.522995 26.618085-12.28527 31.395691 8.19018 4.777605 23.888025-12.28527 27.983115-18.427906 6.142635-8.872695 6.142635-26.618085 15.01533-32.078205 4.777605-3.412575 12.28527 0.682515 17.745391 2.73006 7.507665 2.73006 18.427905 8.19018 26.618085 6.82515 9.55521-2.047545 12.967785-12.28527 23.888026-8.19018 10.92024 4.777605 20.47545 20.47545 15.01533 31.39569-5.46012 9.55521-19.792935 17.062875-30.713176 21.157966-13.6503 4.777605-18.427905 8.19018-30.03066 18.427905-8.872695 7.507665-19.792935 10.92024-30.030661 16.38036-11.602755 5.46012-20.47545 14.332815-32.078205 20.475451-12.28527 5.46012-23.20551 15.697845-35.490781 20.47545-12.967785 4.777605-64.156411 23.888025-32.078205 38.903356 10.92024 4.777605 25.93557 2.73006 37.538325 2.73006 15.01533 0 18.427905-4.777605 27.983116-14.332815 22.522995-22.522995 49.141081-42.998446 73.029106-63.473896 10.237725-8.872695 22.522995-16.38036 32.760721-25.253056 7.507665-6.142635 11.602755-15.697845 23.888025-18.427905 36.855811-7.507665 2.73006 47.093536-4.09509 57.331261-8.19018 12.28527-15.01533 24.57054-25.935571 34.808265-8.872695 7.507665-22.522995 10.237725-29.348145 19.792936 6.82515 7.507665 20.47545 16.38036 19.11042 27.983115-0.682515 5.46012-7.507665 11.602755-10.237725 17.745391l-4.09509 10.237725c-6.82515 14.332815-16.38036 25.93557-30.030661 34.12575-32.760721 19.11042-63.473896 42.998446-90.774496 68.251501-12.967785 11.602755-25.253055 23.20551-38.903356 34.808266-4.777605 4.09509-10.237725 8.872695-16.38036 12.28527-11.602755 5.46012-23.888025 4.09509-34.808266 10.237725-17.74539 9.55521-27.983115 30.030661-5.46012 40.268386s62.108866 15.01533 84.631862 4.09509c14.332815-7.507665 20.47545-21.84048 30.03066-34.808265 7.507665-9.55521 15.697845-19.11042 24.570541-26.618086 8.872695-7.507665 19.792935-12.967785 27.983115-21.157965 8.19018-8.872695 12.967785-22.522995 20.475451-32.760721 7.507665-8.872695 15.01533-17.74539 23.888025-25.253055 5.46012-6.142635 12.28527-15.697845 21.157965-10.237725 8.19018 4.777605 8.19018 21.84048 7.507665 29.348145-0.682515 16.38036-4.09509 32.078206-0.682515 48.458566 3.412575 16.38036 27.3006 39.585871 4.09509 47.776051-10.92024 4.09509-23.888025 8.872695-34.808265 10.92024-12.967785 2.73006-26.618085-1.36503-39.585871 0-8.19018 0.682515-21.84048 2.047545-21.157965 12.967785 0.682515 7.507665 8.19018 10.237725 13.6503 12.967785 12.967785 6.142635 26.618085 5.46012 40.268386 6.142636 10.237725 0.682515 15.01533-3.412575 25.93557-4.777606 12.967785-1.36503 22.522995 6.142635 30.713176 15.015331 8.19018 8.19018 13.6503 12.28527 26.618085 11.602755 17.062875-1.36503 46.411021-22.522995 49.141081-38.903356 2.047545-17.74539-12.967785-32.078206-20.47545-47.093536-5.46012-12.28527-8.872695-23.888025-13.650301-36.173295-4.777605-12.967785-17.74539-25.93557-25.93557-36.855811-4.777605-5.46012-11.602755-10.237725-12.28527-18.427905s5.46012-25.253055 11.602755-30.030661c6.142635-4.777605 15.697845-4.09509 23.888025-5.46012 6.82515-2.047545 14.332815-2.73006 21.840481-2.73006 8.19018 0 13.6503 3.412575 21.157965-0.682515 6.82515-3.412575 12.28527-13.6503 16.38036-19.792935 8.19018-12.28527 14.332815-32.760721-2.047545-41.633416-10.92024-6.142635-23.20551 3.412575-32.76072-0.682515-7.507665-3.412575-4.777605-13.6503-10.92024-19.792935-11.602755-12.28527-45.045991-9.55521-36.855811-31.395691 6.82515-21.157965 34.808266-35.490781 52.553656-43.680961 14.332815-6.82515 24.57054-17.062875 35.490781-28.66563 13.6503-14.332815 19.792935-33.443236 32.078205-49.141081 8.19018-10.92024 34.808266-38.903356 17.062875-49.141081-12.28527-6.82515-31.395691-10.237725-45.04599-5.46012-19.11042 6.142635-17.062875 32.078206-35.490781 38.220841-25.93557 8.19018-15.697845-19.11042-10.237725-34.808266 4.09509-10.92024 8.19018-21.157965 12.28527-31.39569 8.872695-19.792935 24.57054-34.125751 32.760721-53.918686 4.09509-12.967785 11.602755-23.888025 17.74539-35.490781 11.602755-21.84048 21.157965-47.776051 38.220841-64.838926 2.73006-13.6503-8.19018-13.6503-13.650301-27.3006zM3030.366653 270.503427c-5.46012 0-17.062875-19.792935-19.792936-25.253055-6.142635-13.6503-3.412575-25.93557 14.332815-23.205511 8.872695-0.682515 25.93557 6.82515 27.300601 15.01533 2.047545 8.872695-12.967785 32.760721-21.84048 33.443236z m59.378806-4.777605c0 15.01533-6.142635 14.332815-20.475451 15.697845-4.777605 0.682515-15.697845 5.46012-20.47545 2.047545-8.19018-4.777605 0-13.6503 3.412575-19.792935 5.46012-8.872695 15.697845-39.585871 29.348145-37.538326 15.01533 2.047545 9.55521 29.348146 8.190181 39.585871zM1767.031366 697.757824c13.6503 19.792935 25.253055 6.82515 34.808265-8.872695 3.412575-5.46012 10.92024-12.28527 12.967785-19.11042 2.047545-7.507665 0-17.062875-0.682515-24.570541-1.36503-23.888025-5.46012-49.141081-4.09509-73.711621 0-22.522995 1.36503-45.045991-6.142635-66.203956-8.19018-21.157965-28.66563-29.348146-38.22084-3.412575-6.142635 17.74539 9.55521 44.363476-12.967786 54.601201-9.55521 4.777605-21.157965 2.73006-31.39569 7.507665-7.507665 3.412575-15.01533 9.55521-23.205511 13.6503-22.522995 12.28527-43.680961 24.57054-67.568986 34.808266-13.6503 5.46012-23.888025 7.507665-38.22084 10.92024-8.19018 2.047545-15.01533 4.777605-21.157966 11.602755-7.507665 7.507665-5.46012 9.55521-2.73006 18.427906 5.46012 16.38036-0.682515 46.411021 12.28527 59.378806 4.09509 5.46012 11.602755 4.777605 17.745391 6.82515 6.142635 2.047545 9.55521 6.82515 16.38036 6.82515 17.74539 0.682515 30.030661-25.253055 40.268386-36.855811 9.55521-11.602755 16.38036-23.888025 24.57054-36.173295 6.142635-10.92024 13.6503-21.84048 22.522996-32.078206 13.6503-15.697845 24.57054 6.82515 32.078205 19.11042 11.602755 18.427905 19.792935 39.585871 32.760721 57.331261zM1719.93783 606.300813c2.047545-12.967785 18.427905-38.220841 30.713175-44.363476 17.74539-8.872695 19.792935 25.93557 19.792936 38.220841 0 13.6503-2.73006 40.268386-20.475451 33.443235-5.46012-2.047545-12.28527-8.19018-18.427905-10.92024-7.507665-3.412575-12.967785-7.507665-11.602755-16.38036zM1071.548569 716.868245c3.412575 4.777605 4.09509 12.28527 7.507665 18.427905 3.412575 6.142635 7.507665 12.28527 10.237725 19.11042 3.412575 8.19018 3.412575 12.28527 13.6503 9.55521 6.142635-2.047545 8.19018-5.46012 10.92024-10.237725 3.412575-6.82515 3.412575-12.28527 9.55521-19.11042 4.777605-5.46012 12.28527-9.55521 16.380361-16.38036 10.92024-16.38036 1.36503-34.808266 2.73006-52.553656 1.36503-18.427905 10.237725-18.427905 23.888025-8.872695 6.142635 4.09509 10.92024 12.967785 18.427906 17.062875 4.777605 2.73006 10.92024 3.412575 15.697845 6.142635 10.237725 6.82515 10.92024 27.983115 21.157965 32.760721 9.55521 4.09509 23.888025-16.38036 32.078206-20.475451 11.602755-5.46012 15.697845-15.01533 25.253055-25.253055 10.92024-11.602755 19.792935-15.01533 19.792936-32.078206-0.682515-19.792935-7.507665-38.220841-8.190181-58.013776-1.36503-30.030661 3.412575-59.378806 2.73006-88.726951-0.682515-18.427905 5.46012-37.538326 6.825151-55.966231 0.682515-17.062875 3.412575-33.443236 6.142635-49.823596 1.36503-10.92024 6.82515-18.427905 10.237725-28.665631 2.047545-6.82515 2.73006-15.01533 5.46012-22.522995 6.142635-19.792935 4.09509-22.522995-6.82515-38.903356-8.872695-14.332815-19.11042-20.47545-31.395691-32.078205-5.46012-4.777605-10.237725-14.332815-17.74539-17.062876-5.46012-2.047545-12.28527 1.36503-18.427905 2.730061-7.507665 2.047545-15.697845 1.36503-22.522996 5.46012-5.46012 4.09509-9.55521 10.92024-13.6503 16.38036-8.19018 10.237725-17.74539 17.74539-26.618085 27.983115-10.237725 12.28527-21.84048 19.792935-31.395691 32.760721-8.872695 11.602755-17.062875 23.20551-26.618085 34.125751-10.92024 12.28527-23.20551 21.84048-34.808266 34.12575-8.19018 8.872695-18.427905 27.983115-31.395691 30.030661-15.01533 2.047545-4.777605-25.253055-3.412575-34.808266 2.047545-14.332815 3.412575-27.983115 13.650301-38.903356 13.6503-14.332815 26.618085-27.983115 39.58587-43.68096s28.66563-27.983115 43.680961-41.633416 29.348146-30.713176 45.728506-42.315931c16.38036-12.28527 48.458566-30.030661 28.66563-56.648746-12.967785-17.74539-28.66563 3.412575-43.68096-4.777605-12.967785-6.82515-1.36503-23.888025 2.73006-34.12575 6.142635-15.697845 10.92024-34.125751-5.460121-45.045991-5.46012-4.09509-11.602755-6.142635-17.74539-11.602755-4.777605-4.777605-9.55521-11.602755-15.697845-15.697846-9.55521-6.142635-12.967785-2.047545-16.38036-13.6503-2.73006-8.19018 0.682515-16.38036-1.36503-24.57054-1.36503-5.46012-6.142635-10.92024-10.920241-13.650301-2.73006-1.36503-12.28527-2.047545-12.967785-4.777605-5.46012 0-15.01533-2.047545-16.38036 0-5.46012 1.36503-12.28527 9.55521-15.01533 15.697846-5.46012 13.6503 3.412575 27.3006 5.46012 40.9509 5.46012 34.125751-6.82515 66.203956-10.237725 99.647192-2.047545 18.427905-2.73006 36.855811-1.36503 55.283716 1.36503 17.062875-2.73006 32.078206-4.777606 48.458566-1.36503 10.92024-2.047545 12.967785-12.967785 18.427905-6.82515 3.412575-13.6503 8.19018-20.47545 12.967785-12.28527 8.872695-25.253055 17.74539-36.173296 29.348146-10.237725 10.92024-18.427905 21.84048-29.348145 30.713175-4.09509 3.412575-8.872695 10.237725-13.6503 12.967786-6.142635 2.73006-8.872695-0.682515-14.332816 6.142635-6.82515 8.19018-9.55521 24.57054 2.047545 30.713175 8.872695 4.777605 24.57054-2.047545 35.490781 2.047545 7.507665 2.73006 12.967785 9.55521 21.157965 10.92024 6.142635 1.36503 12.28527-2.73006 18.427906-1.36503 11.602755 3.412575 13.6503 27.983115 12.28527 37.538326-2.73006 17.74539-25.93557 11.602755-35.490781 22.522995-8.19018 9.55521 2.73006 19.792935-0.682515 30.030661-2.73006 6.82515-10.237725 8.872695-16.38036 12.967785-6.142635 4.09509-11.602755 9.55521-16.38036 15.697845-9.55521 11.602755-17.74539 22.522995-27.300601 33.443236-6.82515 8.19018-34.808266 73.711621-49.823596 53.236171-6.142635-9.55521-3.412575-29.348146-12.28527-36.173296-10.237725-7.507665-15.01533 19.792935-16.38036 26.618086-2.73006 16.38036 0 32.760721 3.412575 48.458566 4.09509 17.062875 6.82515 32.760721 7.507665 49.823596 0.682515 16.38036 10.92024 29.348146 21.157965 41.633415 12.28527 15.01533 23.20551 29.348146 42.998446 31.395691 18.427905 2.047545 27.3006-2.73006 34.125751-19.110421 6.82515-17.74539 3.412575-27.983115-2.73006-44.363475-6.142635-16.38036-12.28527-17.74539-26.618086-27.983116-12.28527-8.872695-14.332815-14.332815-10.92024-27.983115 4.09509-16.38036 8.872695-32.760721 17.74539-47.093536 9.55521-16.38036 19.792935-13.6503 36.173296-18.427905 14.332815-4.777605 16.38036-23.888025 30.03066-30.030661 10.92024-4.777605 28.66563 15.01533 29.348146 25.935571 0.682515 8.19018-21.157965 23.888025-9.55521 29.348145 13.6503 6.142635 20.47545-17.74539 33.443235 0.682515 6.82515 10.237725 8.19018 23.20551 4.09509 34.125751-6.142635 15.697845-22.522995 18.427905-34.12575 29.348145-12.967785 11.602755 0.682515 25.253055 15.697845 23.888026 12.28527-0.682515 18.427905-6.142635 27.300601 7.507665z m49.823595-205.437019c7.507665-15.01533 15.697845-27.3006 21.157966-43.680961 3.412575-12.967785 10.237725-18.427905 19.11042-29.348145 8.19018-10.237725 13.6503-20.47545 6.82515-33.443236-5.46012-8.872695-19.792935-10.92024-21.84048-22.522995-2.047545-12.967785 12.967785-27.3006 19.792935-35.490781 8.872695-10.237725 21.84048-30.713176 34.125751-36.173295 21.157965-9.55521 14.332815 47.776051 12.967785 58.696291-2.73006 18.427905-7.507665 33.443236-4.777605 51.871141 2.73006 16.38036-5.46012 29.348146-6.82515 45.728505-1.36503 16.38036 1.36503 31.395691-0.682515 47.776051-2.047545 16.38036-2.047545 32.760721-2.047545 49.141081v47.776051c0 4.777605 1.36503 14.332815-1.36503 19.11042-4.777605 8.872695-19.11042 6.82515-27.983116 6.82515-17.062875-2.047545-27.983115 4.777605-23.888025-16.38036 2.73006-18.427905 4.777605-27.983115-13.6503-34.808266-20.47545-6.82515-0.682515-17.062875-5.46012-32.078205-4.777605-17.062875-15.01533-25.93557-5.460121-42.998446z m-62.108866 32.078206c2.047545-15.697845 1.36503-27.3006-2.047545-40.268386-2.73006-12.967785 1.36503-23.888025 6.82515-35.490781 2.73006-6.82515 2.73006-6.82515 8.190181-11.602755 5.46012-5.46012 8.19018-8.19018 11.602755-15.01533 2.73006-6.142635 3.412575-12.967785 9.55521-16.38036 4.777605-2.73006 16.38036-0.682515 19.11042 5.46012 2.73006 5.46012-2.047545 18.427905-2.73006 23.888025-0.682515 7.507665-2.73006 13.6503-5.46012 21.157965-2.73006 6.82515-2.73006 12.28527-3.412575 20.475451-1.36503 8.872695-6.142635 14.332815-9.55521 22.522995-4.777605 10.92024 0.682515 38.903356-10.237725 45.045991-9.55521 5.46012-23.20551-9.55521-21.840481-19.792935zM1900.804308 146.96821c-12.967785 1.36503-30.030661 13.6503-38.903356 22.522995-23.888025 23.20551-55.283716 31.395691-81.219286 49.141081-14.332815 8.872695-32.760721 13.6503-48.458566 21.157965-17.062875 8.19018-33.443236 17.062875-49.141081 27.983116-15.01533 10.237725-27.3006 23.20551-43.680961 28.66563-15.01533 4.777605-33.443236 9.55521-44.363475 22.522996-8.19018 9.55521-1.36503 11.602755 6.82515 15.697845 5.46012 2.73006 7.507665 6.142635 11.602755 9.55521 10.92024 8.872695 23.888025 10.237725 37.538326 9.55521 13.6503-0.682515 36.855811 2.047545 48.458565-7.507665 7.507665-6.142635 11.602755-15.697845 20.475451-22.522995l51.188626-40.950901c25.93557-20.47545 53.918686-48.458566 84.631861-62.108866 14.332815-6.142635 32.760721-4.777605 45.728506-15.01533 8.872695-6.82515 30.030661-25.253055 30.713175-37.538326 0.682515-11.602755-20.47545-21.84048-31.39569-21.157965zM2773.058493 1007.61964c-17.062875-8.872695-30.030661-34.125751-42.315931-49.823596 16.38036-5.46012 32.078206-23.20551 29.348146-41.633416-3.412575-18.427905-23.20551-23.20551-39.585871-23.888025-20.47545-0.682515-42.315931 0-63.473896 0-4.09509 0-18.427905-1.36503-12.28527 6.82515 2.73006 3.412575 10.92024 1.36503 14.332815 4.777605 3.412575 3.412575 2.73006 8.19018 2.73006 12.28527 1.36503 18.427905 0 37.538326 0 55.966231 0 8.19018 1.36503 17.062875 0 25.253056 0 3.412575 0 6.142635-2.73006 8.872695-3.412575 3.412575-14.332815 0-15.01533 5.46012-0.682515 8.872695 42.315931 4.777605 49.141081 4.777605 4.09509 0 19.11042 3.412575 17.062875-5.46012-0.682515-4.777605-12.28527-2.73006-15.01533-6.82515-2.73006-3.412575-2.047545-6.82515-2.047545-10.237726 0-7.507665-2.047545-20.47545 0-27.3006 3.412575-11.602755 12.28527 4.777605 17.74539 11.602755 8.872695 11.602755 18.427905 36.173296 32.760721 39.585871 9.55521 2.047545 21.157965 0 31.39569 0 2.73006 0 8.872695 0.682515 10.237725-1.36503 3.412575-6.82515-8.872695-6.82515-12.28527-8.872695z m-47.776051-71.664077c-2.73006 8.872695-22.522995 27.983115-32.078205 17.062876-3.412575-3.412575-0.682515-19.792935-0.682515-24.570541 0-15.697845-2.73006-30.030661 17.062875-23.888025 14.332815 4.09509 19.792935 17.062875 15.697845 31.39569z"
        fill="#70116E" p-id="7564"></path>
    <path
        d="M2631.095371 549.652067c-14.332815-0.682515-26.618085-9.55521-38.903356-16.380361-30.713176-16.38036-59.378806-34.125751-80.536771-61.426351-12.28527-15.697845-23.888025-30.030661-36.173296-45.04599-4.09509-4.09509-8.19018-7.507665-11.602755-11.602756-7.507665-7.507665-12.967785-24.57054-26.618086-21.157965 4.777605 40.950901 23.20551 83.266831 45.728506 117.392582 17.74539 28.66563 34.125751 58.013776 58.013776 82.584317 11.602755 10.92024 27.983115 26.618085 45.045991 25.93557 8.872695-0.682515 19.11042-5.46012 27.983115-8.19018 10.237725-3.412575 19.11042-7.507665 27.983116-13.6503 12.967785-8.19018 25.93557-9.55521 39.58587-17.062876 36.173296-19.11042-38.220841-30.030661-50.50611-31.39569zM1707.65256 391.991099c-13.6503-6.142635-25.93557-2.047545-36.173296 6.82515-11.602755 9.55521-10.237725 17.74539-6.142635 31.395691 2.047545 6.142635 4.777605 11.602755 5.46012 18.427905 0 4.777605-2.047545 10.92024 0 16.38036 4.09509 10.237725 17.062875 21.157965 25.93557 26.618086 14.332815 9.55521 20.47545 4.09509 33.443236-5.46012 11.602755-8.872695 12.967785-16.38036 14.332815-30.713176-2.047545-22.522995-13.6503-53.236171-36.85581-63.473896zM2615.397525 978.954009c-2.73006 1.36503-6.142635 12.28527-8.19018 15.697845-4.09509 6.82515-8.19018 10.92024-16.38036 12.967786-8.872695 2.047545-29.348146 4.777605-35.490781-3.412575-3.412575-4.09509-2.047545-15.01533-2.047545-20.475451 0-15.01533-3.412575-32.078206 17.745391-25.93557 6.142635 2.047545 9.55521 3.412575 12.967785 9.55521 1.36503 2.73006 2.047545 10.92024 4.777605 12.28527 7.507665 2.73006 6.142635-4.09509 6.82515-8.19018 1.36503-8.19018 3.412575-32.078206 0-39.585871-5.46012-10.237725-8.872695 2.73006-12.28527 8.190181-3.412575 7.507665-8.872695 9.55521-17.745391 9.55521-6.82515 0-9.55521 0.682515-12.28527-5.46012-2.047545-4.09509 0-13.6503 0-18.427906 0-4.09509-2.047545-15.01533 0-19.11042 2.73006-6.142635 6.142635-4.777605 12.28527-4.777605 7.507665 0 16.38036-0.682515 23.888026 2.73006 5.46012 3.412575 17.062875 23.20551 21.84048 20.47545 4.09509-1.36503 4.777605-26.618085 2.047545-29.348145-3.412575-4.777605-17.062875-2.047545-22.522995-2.047545h-48.458566c-8.872695 0-25.253055-3.412575-34.125751 0-4.09509 2.047545-6.82515 2.73006-2.047545 7.507665 6.82515 6.82515 13.6503 0.682515 15.697846 12.967785 2.047545 10.237725 0 21.157965 0 31.395691v43.68096c0 4.09509 0.682515 9.55521-0.682515 13.650301-2.73006 8.19018-8.872695 3.412575-14.332816 8.19018-11.602755 10.237725 13.6503 8.19018 19.110421 8.19018h35.49078c15.697845 0 33.443236 0.682515 49.141081-2.73006 10.92024-1.36503 9.55521-2.047545 10.237725-12.967785 0.682515-6.142635 6.82515-30.713176-5.46012-24.570541zM1861.900952 961.208619c-6.82515-0.682515-15.697845 0-23.20551 0s-39.585871-2.047545-30.713176 8.19018c4.09509 4.777605 11.602755 1.36503 15.015331 8.872695 2.73006 4.777605 2.047545 21.84048 0 26.618086-6.82515 14.332815-31.395691 10.237725-40.950901 2.047545-14.332815-12.28527-16.38036-35.490781-16.38036-52.553656 0-25.253055 14.332815-65.521441 47.77605-51.188626 7.507665 3.412575 12.28527 8.19018 16.380361 15.01533 2.73006 4.09509 6.82515 19.11042 10.237725 21.157966 8.872695 5.46012 7.507665-3.412575 8.19018-8.872696 0.682515-8.19018 2.047545-21.157965 0-29.348145-2.047545-11.602755-8.872695-3.412575-18.427905-4.09509-10.237725-1.36503-18.427905-6.142635-29.348146-6.142635-8.19018 0-16.38036 0.682515-24.57054 3.412575-12.28527 3.412575-22.522995 10.92024-30.713176 21.157965-17.74539 23.888025-17.74539 62.108866 1.36503 84.631862 22.522995 27.3006 62.108866 24.57054 92.822042 13.6503 15.01533-5.46012 15.697845-6.82515 15.697845-21.840481 0-7.507665-2.047545-15.697845 5.46012-21.157965 2.73006-1.36503 15.697845-2.047545 9.55521-8.872695-2.047545-1.36503-6.142635-0.682515-8.19018-0.682515zM2214.078698 892.957118c-9.55521 0-32.078206-1.36503-14.332815 8.872695 16.38036 8.872695 15.01533 21.84048 15.01533 38.903356v35.49078c-12.967785-7.507665-23.20551-27.3006-32.76072-39.585871-4.777605-6.142635-10.92024-13.6503-17.062875-21.157965-4.777605-4.777605-10.237725-15.697845-16.380361-19.11042-8.19018-4.09509-32.760721-4.09509-41.633415-1.36503-17.062875 4.777605 10.92024 11.602755 14.332815 21.84048s0.682515 23.888025 0.682515 34.808266c0 12.967785 0.682515 25.253055 0 38.22084 0 7.507665-0.682515 14.332815-7.507665 19.110421-4.09509 3.412575-20.47545 3.412575-10.237726 10.237725 6.82515 4.777605 29.348146 0 37.538326 0 4.09509 0 12.967785 2.047545 13.6503-3.412575 0.682515-6.142635-12.967785-7.507665-16.38036-10.92024-9.55521-9.55521-6.142635-30.030661-6.142635-42.315931 0-8.19018-4.09509-29.348146 1.36503-36.855811 15.697845 20.47545 32.760721 40.268386 49.823596 60.061321 4.777605 6.82515 31.395691 47.093536 41.633416 27.983116 4.09509-8.19018 0-27.3006 0-35.490781v-43.680961c0-9.55521-2.73006-22.522995 5.46012-30.03066 2.73006-2.73006 17.062875-2.73006 15.697845-8.872695-1.36503-6.142635-27.983115-2.73006-32.760721-2.73006zM1875.551253 366.055529c6.82515-4.777605 12.967785-12.967785 18.427905-19.792936 4.09509-5.46012 16.38036-16.38036 15.01533-23.888025-1.36503-7.507665-4.777605-4.09509-10.237725-6.142635-6.82515-2.73006-10.237725-6.142635-15.697845-10.92024-11.602755-10.237725-27.983115-10.92024-40.950901-0.682515-4.09509 4.09509-6.82515 8.19018-11.602755 11.602755s-11.602755 4.777605-17.062876 8.19018c-12.967785 8.872695-26.618085 17.062875-38.903355 26.618085-10.237725 7.507665-32.760721 18.427905-38.220841 30.030661-7.507665 17.062875 21.84048 14.332815 30.713176 10.92024 12.28527-5.46012 19.792935-18.427905 28.66563-28.66563 7.507665-8.19018 23.888025-31.395691 37.538326-19.110421 8.872695 7.507665 1.36503 17.74539-4.09509 24.570541-13.6503 18.427905-82.584316 94.187072-26.618086 94.187071 24.57054-2.73006 44.363476-15.697845 63.473896-31.39569 7.507665-6.142635 19.792935-22.522995 10.920241-34.125751-7.507665-10.92024-21.157965 8.19018-26.618086-3.412575s19.11042-23.888025 25.253056-27.983115zM1697.414834 895.004663c-6.142635 0-36.855811-4.09509-38.903355 2.73006-0.682515 5.46012 12.967785 6.82515 15.697845 9.55521 4.09509 3.412575 6.142635 8.872695 6.82515 13.6503 1.36503 4.09509 0.682515 8.872695 0.682515 13.6503v41.633416c-4.777605 2.73006-29.348146-32.760721-35.49078-39.585871-4.777605-6.82515-10.92024-14.332815-17.062876-21.84048-4.09509-4.777605-10.237725-16.38036-16.38036-19.792935-4.777605-2.73006-12.28527-1.36503-18.427905-1.36503-6.142635 0-15.697845-2.047545-22.522996 0-6.82515 1.36503-7.507665 2.047545-2.047545 7.507665 4.09509 3.412575 10.92024 3.412575 14.332815 8.872695 3.412575 4.777605 3.412575 9.55521 4.095091 14.332815 0.682515 4.09509 0 8.19018 0 12.28527v47.093536c0 6.82515 0.682515 17.062875-4.777606 22.522996-4.777605 4.09509-25.93557 6.142635-12.28527 12.967785 7.507665 4.09509 30.030661 0.682515 38.903356 0 3.412575 0 12.28527 1.36503 10.237725-5.46012-1.36503-4.777605-16.38036-6.142635-19.792935-13.6503-4.777605-10.92024-1.36503-27.983115-1.36503-38.903356 0-4.777605-3.412575-32.078206 1.36503-35.490781 17.062875 25.93557 40.268386 50.506111 60.061321 75.076652 6.142635 6.82515 12.967785 21.157965 25.253055 18.427905 9.55521-2.047545 6.142635-13.6503 6.142635-22.522995v-51.188626c0-9.55521-2.73006-25.93557 2.73006-34.808266 2.047545-5.46012 22.522995-9.55521 16.380361-15.697845-1.36503-1.36503-11.602755 0-13.650301 0zM2083.035816 894.322148c-6.142635-2.73006-48.458566-2.73006-49.823596 3.412575-1.36503 5.46012 15.01533 7.507665 17.745391 11.602755 3.412575 4.09509 3.412575 10.237725 3.412575 15.01533 0.682515 8.872695 0 17.74539 0 26.618086 0 17.74539 4.777605 42.998446-13.650301 53.918686-17.062875 9.55521-42.315931 3.412575-47.77605-16.380361-6.142635-20.47545-1.36503-48.458566-1.36503-69.616531 0-4.09509-1.36503-9.55521 0.682515-12.967785 3.412575-4.777605 8.872695-2.047545 12.28527-4.777605 8.872695-8.872695-2.73006-7.507665-9.55521-7.507665h-36.855811c-4.09509 0-18.427905-2.73006-15.01533 5.46012 2.047545 4.777605 12.28527 3.412575 15.697845 9.55521 1.36503 2.73006 0.682515 6.82515 0.682515 10.237725 0.682515 9.55521 0 18.427905 0 27.983116 0 21.157965-3.412575 47.093536 15.01533 62.791381 26.618085 21.84048 79.854256 16.38036 90.091982-19.792936 6.142635-21.157965-0.682515-46.411021 2.047545-68.251501 0.682515-9.55521 2.047545-14.332815 10.92024-18.427905 6.82515-3.412575 17.062875-4.09509 5.46012-8.872695zM2454.323983 893.639633c-3.412575 0-14.332815-2.047545-15.015331 2.73006-2.047545 8.19018 15.01533 4.777605 18.427906 10.237725 4.777605 8.872695-8.19018 29.348146-11.602756 37.538326-4.777605 15.697845-10.92024 30.030661-17.062875 45.728505-10.237725-11.602755-14.332815-30.713176-19.792935-47.093535-3.412575-8.19018-17.062875-27.3006-14.332815-36.855811 1.36503-6.142635 22.522995-6.82515 12.967785-13.6503-2.73006-2.047545-12.967785 0-16.380361 0-10.92024 0-34.125751-4.777605-43.68096 0-10.237725 4.777605 4.09509 8.19018 9.55521 12.28527 9.55521 8.19018 12.967785 24.57054 17.74539 36.173296 6.142635 17.062875 13.6503 34.808266 21.157966 51.87114 3.412575 6.82515 6.142635 21.84048 12.967785 25.253056 5.46012 3.412575 13.6503 0 17.062875-3.412575 4.777605-4.777605 7.507665-17.062875 10.237725-23.205511 2.73006-6.82515 6.142635-15.01533 9.55521-22.522995 6.82515-16.38036 12.967785-32.760721 20.475451-49.141081 2.73006-4.777605 4.777605-10.237725 9.55521-13.6503 2.047545-1.36503 12.967785-4.09509 13.6503-6.82515 2.047545-9.55521-29.348146-5.46012-35.49078-5.46012zM2332.83631 895.687178c-2.73006-2.047545-13.6503 0-16.38036 0h-27.983115c-10.92024 0-34.808266-1.36503-13.650301 9.55521 12.28527 6.142635 9.55521 16.38036 9.555211 27.983115v50.506111c0 4.777605 0.682515 11.602755 0 17.062876-1.36503 8.872695-2.73006 7.507665-10.920241 10.92024-6.82515 2.73006-10.92024 4.09509-2.047545 7.507665 3.412575 2.047545 12.967785 0 17.745391 0 8.872695 0 35.490781 4.777605 42.31593 0 8.872695-6.82515-6.142635-7.507665-10.237725-9.55521-6.82515-3.412575-6.82515-7.507665-6.82515-15.015331-0.682515-12.28527 0-24.57054 0-37.538325 0-10.92024-4.777605-41.633416 3.412575-49.141081 2.73006-3.412575 24.57054-4.09509 15.01533-12.28527zM2887.0385 647.934228c12.28527-3.412575 24.57054-8.19018 35.490781-15.01533 19.11042-11.602755 22.522995-27.3006 21.157965-48.458566 0-12.28527-0.682515-30.030661-6.82515-41.633415-6.82515-13.6503-27.983115-37.538326-42.315931-42.998446-8.872695-3.412575-19.11042 0.682515-25.253055 8.872695-6.142635 6.82515-4.777605 10.92024-2.047545 19.11042 4.777605 16.38036 12.28527 31.395691 6.82515 47.776051-4.09509 15.01533-13.6503 27.983115-17.74539 43.680961-2.047545 6.142635-7.507665 15.697845-4.095091 20.47545 6.142635 8.872695 25.93557 10.92024 34.808266 8.19018zM3237.168701 895.004663c-5.46012 2.73006-5.46012 3.412575-0.682515 7.507665 6.82515 5.46012 10.92024-2.047545 10.237725 9.55521-0.682515 7.507665-21.157965 42.315931-27.983115 43.680961-5.46012-7.507665-31.395691-40.268386-27.983116-48.458566 1.36503-4.777605 27.3006-4.777605 12.285271-11.602755-6.142635-2.73006-19.11042 0-25.253056 0-10.92024 0-21.84048-1.36503-32.078205 0-9.55521 1.36503-12.967785 2.047545-3.412576 8.19018 15.01533 10.237725 21.84048 19.792935 31.395691 36.173296 5.46012 10.237725 14.332815 20.47545 17.74539 32.078205 2.047545 6.82515 2.73006 23.888025 0 30.713176s-23.20551 10.237725-17.74539 16.38036c2.047545 2.73006 15.697845 0.682515 18.427905 0.682515h31.395691c2.73006 0 14.332815 1.36503 16.38036 0 8.872695-5.46012-1.36503-6.82515-5.46012-8.872695-7.507665-4.777605-8.872695-2.73006-10.92024-12.28527-1.36503-5.46012-0.682515-14.332815 0-21.157966 2.047545-18.427905 16.38036-34.125751 26.618085-49.823596 4.09509-6.142635 8.19018-13.6503 14.332816-19.11042 2.73006-2.73006 14.332815-5.46012 15.01533-8.19018 1.36503-8.19018-36.173296-8.872695-42.315931-5.46012zM2992.828327 898.417238c0.682515-6.142635-30.030661-3.412575-34.808266-3.412575-6.82515 0-42.315931-3.412575-31.39569 6.82515 3.412575 3.412575 11.602755 0.682515 15.01533 6.142635 2.047545 2.73006 1.36503 8.872695 1.36503 11.602755v70.981561c0 4.09509 2.047545 12.28527-1.36503 16.380361-3.412575 4.09509-25.253055 5.46012-15.01533 12.28527 7.507665 4.777605 32.760721 0 40.9509 0 8.872695 0 38.903356 1.36503 16.380361-9.55521-13.6503-6.142635-10.237725-19.11042-10.237725-32.760721v-51.871141c0-4.09509-2.047545-12.28527 0.682515-16.38036 3.412575-6.142635 17.74539-4.09509 18.427905-10.237725zM1730.175555 129.222819c4.777605 4.09509 11.602755 4.777605 17.062875 8.872696 7.507665 5.46012 5.46012 8.872695 8.19018 16.38036 6.142635 15.01533 16.38036 10.237725 28.665631 10.92024 12.28527 0.682515 25.253055 9.55521 36.855811 7.507665 15.01533-2.73006 13.6503-16.38036 12.28527-27.983115-2.047545-14.332815 2.73006-23.20551-11.602755-33.443236-12.967785-8.872695-30.713176-13.6503-46.411021-10.92024-10.237725 3.412575-68.251501 9.55521-45.045991 28.66563zM3123.188694 895.004663c-15.697845-4.09509-36.855811 0-53.236171 0-12.28527 0-54.601201-6.142635-59.378806 3.412575-1.36503 3.412575-2.047545 26.618085 0 29.348145 7.507665 6.82515 12.967785-11.602755 15.697845-15.697845 4.777605-7.507665 11.602755-12.28527 21.157966-10.92024 10.237725 2.047545 7.507665 7.507665 7.507665 16.38036v68.251501c0 3.412575 1.36503 12.967785-0.682515 17.062876-3.412575 6.82515-27.983115 8.19018-14.332815 15.01533 6.142635 2.73006 19.11042 0 25.253055 0 10.237725 0 21.84048 2.047545 32.078206 0 2.73006-0.682515 6.82515 1.36503 7.507665-3.412575 0.682515-6.82515-11.602755-4.09509-15.01533-6.82515-5.46012-4.09509-4.777605-10.237725-4.777606-17.062876-0.682515-21.157965 0-43.680961 0-64.838926 0-4.09509-2.047545-17.062875 0-20.47545 8.19018-12.967785 26.618085 3.412575 32.078206 12.28527 10.92024 17.74539 12.967785 11.602755 12.967785-4.777605 0-8.872695 2.73006-15.01533-6.82515-17.74539zM1889.884068 530.541646c-7.507665-9.55521-38.903356-31.395691-42.315931-8.872695-1.36503 10.92024 8.872695 25.253055 4.09509 35.490781-4.777605 8.19018-2.73006 25.253055-3.412575 34.808266-0.682515 9.55521-1.36503 18.427905-1.36503 27.983115 0 7.507665-2.047545 24.57054 3.412575 30.713176 3.412575 3.412575 19.792935 15.01533 24.57054 16.38036 19.11042 4.777605 40.268386-24.57054 44.363476-40.268386 5.46012-19.792935-3.412575-38.220841-10.92024-56.648746-4.777605-13.6503-9.55521-27.983115-18.427905-39.585871zM1006.709642 895.687178c-9.55521 0-35.490781-2.73006-16.38036 8.872695 14.332815 8.19018 14.332815 13.6503 14.332815 30.03066 0 10.237725 4.09509 36.855811-2.047545 42.998446-21.157965-21.157965-38.903356-47.776051-57.331261-70.981561-10.92024-13.6503-20.47545-10.92024-36.85581-10.92024-3.412575 0-12.28527-2.047545-15.015331 0-10.237725 6.142635 6.82515 8.19018 11.602756 12.967785 8.19018 8.19018 6.142635 19.11042 6.142635 30.030661 0 16.38036 1.36503 34.808266 0 51.188625-0.682515 9.55521-0.682515 13.6503-9.55521 19.110421-4.09509 2.73006-19.11042 5.46012-7.507666 10.92024 8.872695 4.09509 27.983115 0 37.538326 0 3.412575 0 9.55521 1.36503 11.602755-1.36503 4.09509-6.82515-11.602755-8.872695-15.01533-12.28527-8.19018-8.19018-6.142635-23.888025-6.142635-34.125751 0-15.697845 0.682515-30.713176 0-46.411021 9.55521 4.777605 17.74539 20.47545 21.84048 28.665631 10.92024 12.967785 20.47545 25.253055 30.713176 38.22084 6.82515 7.507665 31.395691 44.363476 38.903356 20.475451 3.412575-10.92024 0-26.618085 0-38.220841v-37.538326c0-7.507665-0.682515-17.74539 2.73006-24.57054 4.09509-8.19018 11.602755-4.777605 16.38036-10.237725 9.55521-10.237725-19.792935-6.82515-25.935571-6.82515zM1532.928717 1008.98467c-4.09509-3.412575-3.412575-8.19018-3.412575-12.967785-0.682515-16.38036 0-34.125751 0-50.506111 0-8.19018-2.73006-26.618085 0.682515-34.808266 2.047545-6.142635 23.20551-8.872695 17.062875-15.697845-1.36503-2.047545-9.55521-0.682515-11.602755-0.682515-15.01533 0-35.490781-4.09509-49.823596 0-8.872695 2.047545-6.82515 4.09509 0.682515 8.19018 9.55521 4.777605 11.602755 2.73006 12.28527 15.01533 0.682515 13.6503 0 26.618085 0 39.585871 0 9.55521-1.36503 18.427905-0.682515 27.3006 0 6.142635 2.047545 19.11042-2.047545 23.888026-3.412575 3.412575-24.57054 2.73006-14.332815 10.237725 2.73006 2.73006 14.332815 0.682515 17.74539 0.682515h28.66563c3.412575 0 12.967785 2.047545 16.380361 0 12.967785-6.82515-8.19018-6.82515-11.602755-10.237725zM1339.094453 895.004663c-9.55521-3.412575-25.93557 0-36.173295 0-3.412575 0-11.602755-1.36503-12.285271 2.73006-0.682515 6.142635 12.28527 6.142635 16.380361 10.237725 12.967785 14.332815 4.777605 51.188626 5.46012 68.251501-2.73006 3.412575-53.918686-62.791381-58.013776-67.568986-6.82515-9.55521-10.92024-11.602755-23.205511-11.602755-4.777605 0-31.395691-3.412575-32.76072 2.73006-1.36503 4.09509 16.38036 10.237725 19.792935 16.38036 4.777605 9.55521 2.047545 25.253055 2.047545 35.490781 0 14.332815 6.82515 47.776051-6.82515 58.013776-5.46012 3.412575-23.20551 4.09509-10.237725 10.92024 2.047545 1.36503 8.872695 0 11.602755 0 8.19018 0 25.93557 4.09509 32.760721 0 11.602755-6.82515-4.777605-8.19018-9.555211-11.602755-7.507665-4.09509-7.507665-10.92024-8.19018-19.110421-0.682515-11.602755 0-22.522995 0-33.443235 0-4.09509-2.73006-25.93557 1.36503-27.983116 2.047545-1.36503 38.903356 47.093536 43.680961 53.236171 4.777605 6.142635 34.125751 53.918686 47.093536 37.538326 3.412575-4.09509 0.682515-20.47545 0.682515-24.570541 0-23.20551-6.142635-56.648746 1.36503-78.489226 1.36503-4.777605 2.047545-7.507665 6.142635-10.237725 2.73006-2.047545 8.872695-1.36503 10.92024-3.412575 5.46012-5.46012 3.412575-5.46012-2.047545-7.507665zM1450.3444 895.004663c-13.6503-2.047545-27.983115 0-42.315931 0-2.73006 0-9.55521-1.36503-12.28527 0-11.602755 5.46012 4.09509 6.82515 8.872695 10.237725 8.19018 6.142635 5.46012 21.157965 5.46012 30.713175v43.680961c0 13.6503-10.237725 50.506111-30.713175 30.030661 7.507665-7.507665 17.74539-19.11042 8.872695-29.348146-6.82515-9.55521-21.84048-7.507665-27.983115 2.047545-17.74539 28.66563 24.57054 43.680961 45.04599 39.585871 53.918686-10.92024 27.983115-70.299046 36.173296-107.837372 0.682515-4.09509 0-6.142635 4.09509-8.872695s12.28527 0.682515 12.967785-5.46012c0.682515-6.142635-4.09509-4.09509-8.19018-4.777605zM376.748287 95.097069c-12.967785-3.412575-24.57054-7.507665-36.855811-12.28527-9.55521-3.412575-21.84048-15.01533-31.395691-14.332816-4.09509 0-11.602755 7.507665-16.38036 9.555211-5.46012 2.73006-10.92024 5.46012-17.062875 7.507665-13.6503 4.777605-26.618085 8.872695-40.268386 11.602755-28.66563 6.142635-58.013776 8.19018-87.361921 7.507665-27.3006-0.682515-53.918686-4.09509-79.171742-11.602755-13.6503-4.09509-26.618085-8.872695-39.585871-14.332815-3.412575-1.36503-28.66563-11.602755-28.66563-13.650301C0 161.301025 0.682515 258.218157 1.36503 355.135288c0 34.808266 0 70.299046 1.36503 105.107312 1.36503 46.411021 4.777605 92.139527 21.157965 135.137973 18.427905 47.093536 46.411021 90.091982 83.949347 125.582762 38.220841 35.490781 81.219286 57.331261 127.630307 80.536771 13.6503 6.82515 27.3006 13.6503 40.950901 21.157966 9.55521 4.09509 21.84048 15.697845 31.39569 17.74539 6.142635 2.047545 12.967785-4.09509 20.475451-8.19018 12.28527-6.142635 23.888025-12.967785 36.173295-19.110421 46.411021-24.57054 94.869587-45.045991 135.137973-79.171741 37.538326-32.078206 68.251501-71.664076 88.726951-116.710067 22.522995-49.141081 27.983115-102.377252 28.665631-155.613423 0.682515-50.506111 0.682515-101.012222 1.36503-150.835817l2.047545-245.02289c-49.141081 23.888025-101.694737 37.538326-157.660968 38.903356-28.66563 0-58.013776-2.73006-85.996891-9.55521z m144.010667 23.20551c15.697845-2.73006 30.713176-6.82515 46.411021-11.602755 10.92024-4.09509 21.84048-10.92024 33.443235-12.967785 0 6.142635 0.682515 12.28527 0.682515 19.11042 2.047545 105.789827 0 211.579654 0 318.051996 0 45.728506-1.36503 92.822042-13.6503 137.185517-15.697845 58.013776-47.093536 108.519887-90.774496 148.788273-27.983115 25.93557-58.696291 41.633416-92.139527 58.013776L354.907806 798.770046c-11.602755 5.46012-23.888025 13.6503-36.85581 17.74539-11.602755 3.412575-22.522995-5.46012-34.125751-10.92024-19.11042-9.55521-38.903356-17.74539-58.013776-27.3006-40.268386-19.792935-77.806711-39.585871-109.202402-71.664077C48.458566 636.331473 22.522995 546.922007 21.84048 451.369905c-0.682515-113.297492-0.682515-225.229954-1.36503-338.527446 0-3.412575-2.047545-13.6503 0-16.38036 3.412575-5.46012 31.395691 9.55521 38.903356 11.602755 59.378806 17.74539 124.217732 19.11042 184.279053 6.142635 17.062875-3.412575 32.760721-8.19018 49.141081-15.01533 4.777605-2.047545 12.967785-8.19018 18.427905-8.19018 4.777605-0.682515 11.602755 4.777605 16.380361 6.82515 30.713176 12.967785 62.791381 19.792935 96.917131 22.522995 32.078206 2.73006 64.156411 3.412575 96.234617-2.047545zM1173.92582 1008.302155c-5.46012-4.09509-7.507665-10.237725-10.237725-16.380361-6.142635-16.38036-12.28527-33.443236-19.11042-49.823595-3.412575-8.872695-7.507665-17.062875-10.92024-25.935571-2.047545-4.777605-4.09509-15.697845-8.19018-19.792935-17.74539-16.38036-25.253055 10.92024-30.713176 23.888025-6.142635 16.38036-13.6503 34.125751-20.47545 50.506111-4.09509 11.602755-7.507665 28.66563-18.427906 36.173296-4.777605 3.412575-21.84048 6.142635-10.237725 12.28527 3.412575 2.047545 12.967785 0 16.38036 0 5.46012 0 37.538326 3.412575 29.348146-6.82515-2.73006-3.412575-11.602755-0.682515-15.01533-4.777605-2.73006-4.09509 0-8.872695 1.36503-13.650301 2.73006-9.55521 3.412575-14.332815 12.967785-16.38036 12.967785-2.73006 32.760721-3.412575 39.585871 8.872695 1.36503 2.73006 9.55521 17.062875 8.19018 20.475451-2.047545 6.142635-17.062875 0.682515-17.062876 8.872695 0 6.82515 28.66563 3.412575 34.125751 3.412575 4.777605 0 35.490781 4.09509 32.078206-3.412575-1.36503-4.777605-10.237725-4.777605-13.650301-7.507665z m-84.631861-39.585871c2.047545-5.46012 14.332815-42.315931 17.74539-42.315931s15.01533 36.855811 17.062875 42.315931h-34.808265zM2835.167359 933.225503c-10.237725-8.872695-9.55521-23.888025 3.412575-30.03066 12.967785-6.142635 25.93557 0 34.125751 9.55521 4.09509 4.09509 13.6503 31.395691 20.47545 23.888025 2.047545-1.36503 0-14.332815 0-16.38036 0-4.777605 2.73006-17.062875 0-21.157965-2.73006-5.46012-5.46012-2.73006-10.237725-2.047545-6.142635 0.682515-5.46012 1.36503-12.967785-0.682515-26.618085-8.872695-70.981561-4.09509-70.981561 32.76072 0 35.490781 37.538326 34.125751 60.061321 47.776051 11.602755 6.82515 16.38036 19.11042 5.46012 30.030661-10.92024 10.92024-29.348146 6.82515-40.268386-2.047545-6.82515-5.46012-21.84048-36.855811-27.983116-28.665631-2.047545 3.412575 0 15.697845 0 19.792936 0 4.09509-2.73006 19.11042 2.047546 23.20551 5.46012 4.777605 6.82515-2.047545 10.92024-2.73006 7.507665-1.36503 15.697845 4.777605 23.888025 6.142635 27.983115 5.46012 70.981561-6.82515 66.886471-42.998446-4.09509-35.490781-44.363476-29.348146-64.838926-46.411021z"
        fill="#70116E" p-id="7565"></path>
    <path
        d="M64.156411 274.598517c8.872695 3.412575 25.253055 6.82515 22.522996-8.872695-1.36503-7.507665-11.602755-11.602755 0.682515-12.28527 12.967785-0.682515 13.6503 13.6503 22.522995 19.792935 6.142635 4.09509 15.697845 5.46012 23.20551 5.46012 6.142635-0.682515 17.062875-5.46012 19.110421-11.602755 1.36503-8.872695-6.142635-4.09509-8.190181-10.92024-2.73006-10.92024 17.062875-6.142635 21.840481 0 4.777605 5.46012 3.412575 11.602755 11.602755 14.332815 4.09509 1.36503 12.967785 0 16.38036-4.09509 6.82515-9.55521-6.142635-8.19018-10.237725-16.38036-5.46012-11.602755 2.73006-17.062875 5.46012-27.983116 3.412575-12.28527-2.047545-22.522995-8.872695-31.39569-3.412575-4.09509-11.602755-10.92024-13.6503-16.380361-1.36503-4.09509 1.36503-6.82515 0.682515-10.237725-2.047545-5.46012-4.09509-3.412575-8.19018-6.82515 0.682515 0-5.46012-5.46012-3.412575-4.777605-20.47545-7.507665-36.855811 0.682515-37.538326 23.20551 0 8.19018 8.872695 22.522995 3.412575 27.983116-4.09509 4.09509-19.11042-0.682515-22.522995-1.36503-12.28527-2.047545-27.983115 1.36503-36.173296 10.92024-6.82515 8.19018-6.142635 17.74539-6.142635 27.983115 0 5.46012 1.36503 12.967785 0.682515 19.110421-1.36503 10.237725-4.777605 10.237725 6.82515 14.332815z m53.236171-15.01533c1.36503-1.36503 0-2.047545 1.36503-3.412575-0.682515 1.36503 0 3.412575-1.36503 3.412575z m12.28527 6.142635c-2.047545-0.682515-0.682515-4.777605-1.36503-4.777605-6.82515-2.047545-1.36503 8.19018-5.46012 8.19018 0.682515 0-2.047545-11.602755-4.09509-12.967785 0 0 0.682515-0.682515 1.36503-0.682515 2.047545-0.682515 8.19018-1.36503 8.872695-2.047545 2.73006-2.047545 2.047545-9.55521 4.777605-12.285271 0.682515 0.682515-0.682515 12.28527 2.047545 17.062876 0.682515 1.36503 5.46012 8.19018 6.142635 7.507665-4.09509 3.412575-8.19018 1.36503-12.28527 0z m19.792936-40.268386c-3.412575 3.412575-6.82515 12.967785-12.967786 11.602755-3.412575 0-22.522995 16.38036-13.6503 0.682515 2.73006-5.46012 15.01533-4.09509 19.11042-7.507665 7.507665-6.82515 0-6.82515 0-10.92024 0-2.73006 6.142635 2.73006 7.507666-0.682515 1.36503-4.09509-6.142635-9.55521-6.825151-11.602755-0.682515-1.36503 4.777605-4.09509 6.142636-2.73006 0.682515 0.682515 0.682515 4.777605 0 4.09509-0.682515-0.682515-0.682515 4.777605 0 5.46012 2.047545 2.73006 6.82515-0.682515 8.19018 1.36503 4.09509 6.142635-5.46012 7.507665-7.507665 10.237725z m22.522995-22.522995c0-8.872695 4.777605 10.92024 0 0z m-3.412575-15.697846c-9.55521 0-4.09509-15.697845 0 0z m-14.332815-2.73006c-3.412575 3.412575-15.697845-4.09509-8.872695-4.09509 1.36503 0 11.602755-0.682515 8.872695 4.09509z m-4.09509-22.522995c-0.682515 0-9.55521 17.74539-13.650301 15.01533-4.09509-2.73006 12.28527-15.01533 13.650301-15.01533z m-11.602756-3.412575c1.36503 0.682515 2.047545 2.047545 2.047545 4.09509 0 4.09509-4.777605 4.777605-4.777605 4.777605 1.36503-2.73006 2.73006-4.777605 2.73006-8.872695z m-4.09509 27.3006c1.36503 0.682515 5.46012 4.777605 6.82515 4.777606 6.142635 2.047545 14.332815-5.46012 21.840481-2.047545 4.777605 2.047545 10.92024 15.697845 4.09509 14.332815-4.09509-0.682515-1.36503-12.967785-7.507665-8.872695-1.36503 0.682515 2.047545 9.55521-0.682515 11.602755-4.09509 4.09509-1.36503-3.412575-4.777605-4.777605-6.142635-2.73006-8.19018 2.047545-13.650301 4.09509-3.412575 1.36503-14.332815 1.36503-14.332815 8.19018 0 1.36503-2.73006-1.36503 0-6.142635 2.047545-3.412575 18.427905-8.872695 18.427906-12.28527-1.36503-1.36503-6.142635-4.777605-7.507666-6.142635-2.047545-1.36503-4.09509 3.412575-5.46012 2.047545-1.36503-1.36503 2.047545-4.777605 2.73006-4.777606z m-8.19018-25.253055c1.36503 0-0.682515 6.82515-2.047545 6.82515-3.412575 0-0.682515-6.82515 2.047545-6.82515z m-2.047545 64.838926c-0.682515 1.36503-2.047545 1.36503-4.09509 1.36503-13.6503 0 8.872695-8.19018 4.09509-1.36503z m-10.92024-10.92024c6.142635 0-1.36503 11.602755-1.36503 3.412575-0.682515-1.36503 0-2.73006 1.36503-3.412575z m-5.46012 23.20551c0.682515 0 1.36503 0.682515 1.36503 1.36503-0.682515 1.36503-1.36503 1.36503-2.047545 1.36503-3.412575 0 0.682515-2.73006 0.682515-2.73006z m-6.82515-26.618085c0 4.777605-2.73006 0.682515-4.09509 0.682515-2.73006 0 4.09509-8.19018 4.09509-0.682515z m-28.665631 51.871141c2.047545-0.682515 4.09509 0.682515 5.46012 2.73006-0.682515 0-0.682515 0-5.46012-2.73006z m17.062876-53.236171c0 2.047545-9.55521 6.142635-10.237726 6.142635-14.332815 0 12.967785-16.38036 10.237726-6.142635z m-4.777606 21.157965c6.82515 2.047545-2.047545 8.19018-3.412575 8.19018 0 0-5.46012-8.872695-5.46012 0 0 8.19018-7.507665 7.507665-8.872695 14.332816-0.682515 2.047545 6.142635 10.92024 0 9.55521-8.19018-2.73006-4.09509-12.28527-0.682515-16.38036 0-0.682515 10.92024-13.6503 8.872695-12.285271-0.682515 0-5.46012 2.047545-5.46012 0.682515 0 0 14.332815-4.09509 15.01533-4.09509z m-15.697845-12.967785c0 2.73006 1.36503 4.777605 0 6.82515 0 0.682515-5.46012 1.36503-5.46012 0.682515-0.682515-3.412575-0.682515-4.777605 5.46012-7.507665z m-4.09509 15.697845c0.682515 2.73006 0 4.777605-2.047545 5.46012-4.09509-1.36503 2.047545-10.92024 2.047545-5.46012zM317.369481 699.122854c17.062875-4.777605 34.125751-14.332815 49.823595-21.84048 34.125751-16.38036 65.521441-37.538326 90.091982-66.886471 43.680961-51.188626 45.728506-124.217732 45.728506-188.374143V327.834688c0-4.777605 2.73006-26.618085 0-29.348146-2.047545-2.047545-2.73006-0.682515-6.142635-1.36503-11.602755-3.412575-27.983115 0-39.585871 0H310.54433v-0.682515H146.058213c-6.142635 0-23.888025-3.412575-27.983116 2.047545-3.412575 5.46012 0 25.93557 0 32.078206v62.791381c0 43.680961-2.047545 87.361922 7.507665 131.042882 17.062875 77.806711 69.616531 126.947792 141.280608 158.343483 10.92024 4.09509 20.47545 8.872695 30.713175 13.6503 9.55521 4.777605 9.55521 5.46012 19.792936 2.73006z m-4.777606-72.346591c0-21.157965 20.47545-20.47545 20.475451 0 0 19.792935-21.157965 19.792935-20.475451 0z m30.713176 16.38036c-4.777605-6.82515 19.792935-15.697845 16.38036-25.253055-5.46012-12.28527-14.332815 4.777605-15.697845 2.73006-4.777605-5.46012 15.01533-16.38036 19.792935-3.412575 2.73006 9.55521-12.28527 15.01533-16.38036 22.522995 38.220841 1.36503-3.412575 6.82515-4.09509 3.412575z m-110.567432-143.328152c16.38036-9.55521 31.395691-19.11042 45.045991-32.760721-11.602755 2.73006-23.20551 3.412575-34.808266 3.412575 0-6.82515 24.57054-23.888025 30.030661-29.348145 7.507665-8.872695 20.47545-21.84048 21.84048-34.125751-6.142635 2.73006-14.332815 4.09509-21.84048 4.09509 10.92024-10.92024 19.11042-27.3006 25.253055-41.633415 1.36503-3.412575 11.602755-36.173296 12.28527-36.173296 1.36503 0 12.28527 34.125751 13.650301 37.538326 6.142635 13.6503 13.6503 30.030661 23.888025 40.268385-2.047545 0-21.157965-4.09509-21.157965-4.09509-10.237725 10.237725 47.776051 57.331261 51.871141 63.473896-12.28527 2.047545-22.522995-1.36503-34.125751-3.412575 8.19018 13.6503 24.57054 22.522995 36.855811 30.713176 4.09509 2.73006 36.855811 16.38036 36.85581 20.47545-21.84048 2.73006-40.950901-2.73006-62.108866-7.507665-9.55521-2.047545-19.792935-2.73006-29.348145 0-5.46012 1.36503-11.602755 8.872695-17.062876 8.19018-6.82515-0.682515-15.01533-8.872695-23.20551-10.237725-10.237725-1.36503-19.792935 0.682515-29.348146 2.73006-4.09509 1.36503-57.331261 12.28527-57.331261 6.142635 0-3.412575 29.348146-15.697845 32.760721-17.74539z m33.443236 136.503002c-1.36503 4.09509-0.682515 9.55521-4.09509 3.412575-2.73006-5.46012 0-15.697845 0-21.84048-2.73006 2.047545-5.46012 3.412575-8.190181 4.777605-1.36503-5.46012 8.872695-13.6503 12.285271-10.237725 2.047545 2.047545 0.682515 20.47545 0 23.888025z m-10.237726-83.949346H178.136418c7.507665-11.602755 11.602755-17.062875 25.935571-18.427905 14.332815-1.36503 27.3006-4.777605 40.268385-8.872696 12.967785-4.09509 23.888025-7.507665 37.538326-6.82515 5.46012 0.682515 11.602755 2.047545 17.74539 4.09509 3.412575 1.36503 9.55521 6.142635 12.967785 6.142635 4.09509 0 10.92024-6.142635 15.697846-7.507665 5.46012-2.047545 10.92024-2.73006 16.38036-2.73006 13.6503-0.682515 25.253055 4.09509 38.903356 8.19018 12.967785 3.412575 25.253055 5.46012 38.903355 7.507666 6.142635 0.682515 21.84048 8.872695 21.840481 18.427905-22.522995 0-51.188626 1.36503-76.441682 0.682515-6.82515 0-28.66563-4.09509-34.12575 0-3.412575 2.73006-0.682515 6.142635-3.412575 8.19018-2.73006 2.047545-14.332815 0-18.427906 0-2.047545 0-15.01533 2.047545-17.062875 0-3.412575-3.412575 2.047545-6.142635-2.047545-8.872695-6.82515-4.09509-29.348146 0-36.855811 0z m25.935571 83.949346c2.73006-2.73006 6.142635 5.46012 8.872695 4.777605 6.82515-0.682515 8.19018-6.82515 8.19018-12.967785-21.84048 21.157965-22.522995-34.808266-0.682515-14.332815 6.82515 5.46012 6.142635 21.84048 0 27.3006-5.46012 4.777605-15.697845 3.412575-16.38036-4.777605zM455.237513 268.455882c6.142635-4.777605 4.09509-15.01533 13.6503-17.062875 1.36503 0 12.28527 0.682515 12.967785 2.047545 4.09509 5.46012-0.682515 2.73006-2.047545 6.142635-2.047545 5.46012-8.872695 4.09509-2.73006 11.602755 4.09509 5.46012 12.28527 5.46012 17.745391 5.46012 8.19018 0 18.427905-0.682515 24.57054-7.507665 6.142635-6.82515 5.46012-17.062875 19.11042-16.38036 12.967785 0.682515 2.73006 5.46012 1.36503 12.967785-0.682515 10.92024 6.142635 11.602755 15.697846 10.237725 15.01533-1.36503 15.01533-3.412575 14.332815-16.38036-1.36503-22.522995 6.82515-44.363476-19.792935-55.283716-13.6503-5.46012-24.57054 4.777605-37.538326 0.682515-15.01533-4.777605 0.682515-13.6503-2.047545-25.253056 0-8.872695-2.047545-25.93557-12.967785-33.443235-3.412575-1.36503-20.47545 1.36503-24.570541 2.73006 3.412575-1.36503-4.777605 5.46012-3.412575 4.777605-3.412575 2.73006-7.507665 3.412575-8.872695 8.872695-1.36503 4.777605 1.36503 7.507665-0.682515 12.28527-2.047545 4.09509-7.507665 10.237725-10.237725 13.650301-8.872695 9.55521-15.01533 15.01533-12.28527 30.713175 2.047545 11.602755 13.6503 19.792935 5.46012 32.078206-4.09509 6.142635-15.697845 5.46012-10.920241 15.01533 4.09509 7.507665 17.74539 6.82515 23.205511 2.047545z m94.187072-2.047545c0.682515-2.73006 2.73006-4.09509 5.46012-3.412575-1.36503 2.047545-3.412575 2.73006-5.46012 3.412575z m15.01533-27.300601c-1.36503 0-2.047545-4.09509-2.047545-4.777605 0-7.507665 6.82515 3.412575 2.047545 4.777605z m-6.142635-21.157965c1.36503 0.682515 8.19018 4.09509 7.507665 6.82515-0.682515 1.36503-6.142635 1.36503-6.82515 0.682515-2.73006-3.412575-0.682515 0-0.682515-7.507665z m0 17.062875c-12.967785-2.73006 2.73006 9.55521 2.73006 9.55521 2.73006 2.73006 8.19018 17.74539-1.36503 16.380361-4.09509-0.682515 1.36503-5.46012 0.682515-6.82515 1.36503-2.047545 1.36503-4.09509 0-5.46012-1.36503-0.682515-3.412575-1.36503-5.46012-2.73006-5.46012-8.19018-3.412575-11.602755-8.190181-6.825151-0.682515-4.09509-9.55521-5.46012-4.09509-8.872695 1.36503-0.682515 15.01533 2.73006 15.697846 4.777605z m-17.062876-26.618085c2.73006 0 8.19018-0.682515 10.237726 2.73006 2.73006 8.19018-13.6503 2.73006-13.650301 0 0.682515-2.047545 1.36503-2.73006 3.412575-2.73006z m-10.92024 1.36503c0 2.047545-1.36503 3.412575-2.73006 4.777605-5.46012 0 2.73006-10.237725 2.73006-4.777605z m-8.872695 30.713175c-1.36503 1.36503-2.047545 0.682515-3.412575-0.682515 0-2.73006 3.412575-0.682515 3.412575 0.682515z m-51.871141-24.57054h3.412575c8.872695 0 1.36503-6.82515 3.412575-8.872695 2.73006-2.047545 5.46012-1.36503 6.82515 2.73006 0 0.682515-7.507665 6.82515-5.46012 10.92024 2.73006 4.777605 4.09509-2.047545 6.82515-1.36503 3.412575 0.682515-2.047545 5.46012-2.047545 6.142635 2.047545 6.82515 6.82515 8.19018 13.650301 10.237725-0.682515 0 8.19018 2.047545 8.19018 2.73006 1.36503 1.36503 4.777605 8.19018-0.682515 8.872696 0 0-6.142635-7.507665-7.507665-8.190181-2.73006-1.36503-6.82515-1.36503-8.872696-2.73006-0.682515-0.682515-21.157965-18.427905-17.74539-20.47545z m39.585871 42.315931c-0.682515 0-0.682515-2.73006-0.682515-2.73006-4.09509 1.36503-2.047545 12.967785-3.412575 12.967785-6.142635 0 1.36503-9.55521-6.82515-8.19018 1.36503 0-4.777605 6.82515-0.682515 4.777605-4.777605 2.047545-8.19018 2.73006-12.967786 0.682515 13.6503 0 6.142635-18.427905 8.190181-24.570541 3.412575 5.46012 2.047545 7.507665 5.46012 9.555211 2.73006 2.047545 7.507665 0.682515 8.872695 1.36503 1.36503 0.682515 4.777605 6.142635 2.047545 6.142635z m4.09509-42.315931c2.047545 0 1.36503 5.46012-0.682515 5.46012-0.682515-0.682515-1.36503-1.36503-1.36503-2.73006 0.682515-1.36503 1.36503-2.047545 2.047545-2.73006z m-5.46012 10.92024c-8.872695-0.682515-0.682515-2.73006-1.36503-4.09509 1.36503 2.73006 8.19018 2.73006 1.36503 4.09509z m-7.507665-66.203956c7.507665 2.047545 1.36503 12.28527 0 0z m-11.602756-2.73006c1.36503 0 0.682515 2.73006 0.682515 3.412575-0.682515 2.047545 4.09509 6.142635 3.412576 6.82515-2.73006 2.73006-9.55521-10.237725-4.095091-10.237725z m2.047546 17.74539c0 4.777605-15.01533-12.967785-15.015331-13.6503 2.047545-1.36503 15.01533 10.92024 15.015331 13.6503z m-7.507666 6.82515c0 0.682515-12.28527 2.047545-10.92024-1.36503 2.047545-2.047545 10.92024-2.73006 10.92024 1.36503z m-19.11042-2.73006c2.047545 4.09509-1.36503 6.82515-5.46012 7.507665 0-0.682515 2.73006-9.55521 5.46012-7.507665z m-5.46012 20.475451c0.682515-5.46012 2.73006-11.602755 9.55521-11.602755 6.82515 0.682515 13.6503 4.777605 21.157965 4.777605 2.73006 0 8.872695-12.28527 9.555211 0.682515-1.36503 1.36503-4.09509-2.73006-6.142635-1.36503 0 0-5.46012 6.82515-6.142636 6.142635 2.73006 2.73006 8.872695 4.09509 12.285271 6.142635 3.412575 2.73006 7.507665 3.412575 8.19018 8.19018 0 0.682515-2.73006 3.412575-3.412575 3.412575-1.36503-0.682515-6.82515-8.872695-8.872695-9.55521-1.36503-0.682515-7.507665-2.047545-8.872696-2.047545-6.142635-1.36503-6.82515-2.047545-12.28527-0.682515-0.682515 0-0.682515 6.142635-3.412575 5.46012-5.46012-2.047545 5.46012-19.11042-4.777605-13.6503 0.682515 0-8.19018 15.697845-6.82515 4.09509z m-3.412575 1.36503c0 1.36503 0 4.09509-2.047545 4.09509-4.09509 0 2.047545-10.237725 2.047545-4.09509zM344.670081 467.06775zM247.070434 224.092406c2.047545-2.047545 2.73006-4.09509 1.36503-6.82515 0.682515-2.73006 3.412575-4.09509 6.82515-3.412575 4.09509-2.047545 16.38036 0.682515 19.792936-2.73006 11.602755-12.28527-17.74539-4.777605-21.157966-4.777605-2.047545 0-10.237725 4.777605-8.19018-1.36503 1.36503-5.46012 14.332815-7.507665 19.110421-8.19018 7.507665-1.36503 21.84048-6.142635 6.142635-8.872695-3.412575-0.682515-32.078206 9.55521-25.253056 0 6.142635-8.872695 28.66563-2.047545 32.760721-9.555211 5.46012-10.237725-29.348146-0.682515-30.030661-1.36503-4.09509-2.73006 14.332815-25.93557 17.745391-28.66563 10.237725-8.872695 22.522995-14.332815 36.173295-16.38036-2.73006 8.19018-6.82515 25.253055-12.28527 32.078205-0.682515 0.682515 0 2.047545-0.682515 3.412575-2.047545 2.73006-8.19018-1.36503-8.19018 4.777605 0.682515 11.602755 26.618085-4.777605 26.618085 12.28527 0 6.142635 0.682515 6.82515-4.09509 8.872696-3.412575 2.047545-25.253055-5.46012-21.84048 5.46012 2.047545 6.82515 21.157965-2.047545 25.93557 4.09509 1.36503 2.047545 0 19.792935 7.507665 8.19018 2.73006-4.09509-2.047545-7.507665 2.047546-10.237725 4.777605-4.09509 21.84048 6.142635 23.888025-3.412575 0.682515-6.142635-14.332815-3.412575-16.38036-3.412575-9.55521 0.682515-8.872695 2.047545-10.920241-6.142635-4.09509-20.47545 30.030661-5.46012 26.618086-15.697846-1.36503-4.09509-6.82515-1.36503-8.19018-3.412575-0.682515-0.682515 0.682515-2.73006 0-3.412575-5.46012-7.507665-9.55521-23.20551-11.602755-32.76072 10.92024-2.73006 22.522995 3.412575 32.76072 10.237725 6.142635 4.09509 11.602755 8.872695 16.38036 14.332815 2.047545 2.047545 8.19018 16.38036 10.920241 16.38036 12.967785-0.682515-6.82515-22.522995-10.237726-25.93557-10.92024-10.237725-22.522995-17.062875-37.538325-21.157966-4.09509-0.682515-8.19018 0-11.602755-3.412575-2.047545-2.047545-0.682515-7.507665-3.412575-8.872695-6.82515-4.09509-6.142635 5.46012-8.872696 7.507665-4.777605 3.412575-9.55521 3.412575-15.697845 5.46012-28.66563 8.872695-49.823596 32.760721-53.918686 62.791382-1.36503 8.19018-4.09509 32.760721 7.507665 34.12575z m62.108866-92.822041c3.412575 0.682515 17.062875 35.490781 15.697846 37.538325h-5.46012c-9.55521 0-2.047545-6.82515-7.507666-6.82515-6.82515-0.682515-3.412575 3.412575-6.82515 5.46012-0.682515 0.682515-7.507665 5.46012-10.237725 1.36503-1.36503-2.73006 12.28527-37.538326 14.332815-37.538325z"
        fill="#70116E" p-id="7566"></path>
    <path
        d="M326.242176 271.185942c8.872695 5.46012 31.395691-10.92024 37.538325-17.062875 7.507665-6.82515 21.84048-19.792935 12.285271-27.983116-10.237725-8.19018-34.125751-9.55521-47.093536-10.237725-19.792935-1.36503-40.268386 0.682515-59.378806 4.777605-11.602755 1.36503-32.760721 2.047545-24.570541 17.74539 6.142635 12.967785 19.792935 24.57054 32.760721 30.030661 3.412575 1.36503 13.6503 5.46012 12.28527-2.047545-0.682515-4.777605-10.237725-4.09509-12.967785-8.19018 7.507665-1.36503 24.57054-7.507665 30.713175-4.09509 2.047545 1.36503 6.142635 8.19018 3.412575 11.602755-2.047545 2.73006-25.253055-4.09509-15.697845 6.82515 2.047545 2.73006 15.697845 3.412575 19.11042 0.682515 4.777605-3.412575 2.73006-6.142635 3.412576-10.92024 1.36503-9.55521-2.73006-5.46012 3.412575-8.872695 2.73006-1.36503 21.157965 2.047545 21.157965 4.09509-2.73006 2.73006-26.618085 7.507665-16.38036 13.6503z m-44.363476-32.760721c19.11042-4.777605 37.538326-4.777605 56.648746 0-10.237725 10.92024-42.998446 12.28527-56.648746 0z m55.283716 10.920241c3.412575-8.19018 23.20551-9.55521 6.82515-17.745391-10.237725-4.777605-25.93557-4.09509-37.538326-4.09509-6.82515 0-28.66563-0.682515-34.12575 5.46012-6.142635 7.507665 6.82515 11.602755 11.602755 16.380361-7.507665 0.682515-11.602755 4.09509-19.11042 1.36503-4.09509-1.36503-16.38036-13.6503-14.332816-17.745391 2.047545-4.777605 21.157965-6.142635 25.935571-6.82515 10.92024-2.047545 21.157965-2.73006 32.078205-2.73006 11.602755 0 22.522995 0 33.443236 2.047545 4.09509 0.682515 25.93557 3.412575 27.3006 7.507665 0.682515 3.412575-12.28527 17.74539-15.697845 19.110421-4.09509 1.36503-10.92024-2.047545-16.38036-2.73006zM376.065772 177.681385c-4.09509-2.047545-18.427905-4.777605-23.888026-4.09509-15.01533 1.36503-4.09509 6.82515 5.46012 8.19018 0.682515 0 27.3006 4.777605 20.475451 11.602756-4.09509 4.09509-25.253055-11.602755-32.078206-4.09509s12.967785 7.507665 15.697845 8.19018c12.28527 2.73006 27.983115 12.967785 5.46012 8.19018-4.09509-0.682515-21.157965-6.142635-21.157965 2.047545 0 5.46012 19.11042 4.777605 22.522995 6.142635 3.412575 0.682515 6.142635 2.73006 8.190181 4.09509 1.36503 0.682515-1.36503 5.46012 2.047545 5.46012 8.872695 0 8.19018-17.062875 8.19018-23.20551 0-4.09509-0.682515-17.062875-4.09509-20.475451-3.412575-4.09509-3.412575-0.682515-6.82515-2.047545zM201.341928 727.788485zM434.762063 732.56609s-4.777605-1.36503-6.142636-2.047545c-0.682515-0.682515-1.36503-3.412575-2.047545-4.09509-3.412575-4.09509-4.777605-10.237725-7.507665-15.01533-1.36503-2.73006-5.46012-7.507665-5.46012-10.920241 0-4.777605 4.09509-6.142635 4.09509-9.55521 0 2.047545-32.078206 10.237725-13.6503 10.237725 6.142635 0.682515 11.602755 17.062875 15.01533 23.888026 2.047545 3.412575 4.09509 6.82515 4.09509 10.92024 0 2.047545-4.777605 4.777605-4.777605 4.777605 2.73006 4.09509 12.967785-1.36503 16.380361-4.777605 5.46012-4.777605 2.047545-0.682515 0-3.412575zM462.062663 656.124409s-13.6503 9.55521-15.01533 10.92024c2.73006 4.09509 4.777605-2.73006 8.872695 0 1.36503 2.047545 2.73006 7.507665 3.412575 9.55521 2.73006 7.507665 5.46012 15.697845 6.82515 23.20551-5.46012-4.09509-14.332815-8.872695-20.47545-12.967785-2.73006-2.047545-6.82515-6.82515-8.19018-7.507665 0 0 4.09509-3.412575 2.73006-4.777605-0.682515-0.682515-19.11042 8.872695-15.015331 12.967785-1.36503-2.047545 15.697845 4.09509 15.015331 3.412575 6.82515 3.412575 14.332815 8.19018 21.157965 12.28527 19.11042 10.92024 10.237725-2.047545 6.142635-16.38036-3.412575-11.602755-5.46012-20.47545-5.46012-30.713175zM521.441469 648.616743c-0.682515-1.36503-4.777605-6.142635-6.142635-6.142635-4.09509 0.682515 1.36503 10.237725 2.047545 12.285271-5.46012 4.777605-7.507665 14.332815-13.6503 12.28527-7.507665-2.047545-14.332815-9.55521-8.872695-15.01533 4.09509-4.09509 12.28527 0.682515 11.602755-3.412576-0.682515-1.36503-12.967785-11.602755-13.6503-11.602755-4.09509 0.682515 6.82515 18.427905-7.507666 15.015331-16.38036-3.412575-8.872695-15.697845 1.36503-19.792936 2.73006-1.36503 6.82515 2.73006 8.190181-1.36503 0 0-7.507665-7.507665-8.872696-7.507665-4.09509 0-23.888025 28.66563-23.20551 29.348146 1.36503 0.682515 2.73006-2.73006 3.412575-2.047545-0.682515 0 6.82515 0.682515 7.507665 1.36503 5.46012 1.36503 16.38036 12.967785 20.475451 17.062875 7.507665 8.19018 0 17.74539 10.237725 8.19018 4.09509-4.09509 15.01533-15.01533 17.74539-21.157965 2.73006-6.82515 2.73006-2.047545-0.682515-7.507666zM388.351042 717.55076c-0.682515-8.872695 2.73006-5.46012 4.09509-11.602756-0.682515 0.682515-20.47545 2.73006-17.745391 8.190181-0.682515-0.682515 6.142635 0 7.507666 0.682515 2.047545 1.36503 2.047545 4.777605 3.412575 6.82515 3.412575 4.777605 4.09509 14.332815 8.872695 19.11042-3.412575-3.412575-45.728506-31.395691-50.506111-17.062875-2.047545 4.777605 5.46012 1.36503 8.872695 3.412575 2.047545 1.36503 4.777605 5.46012 6.82515 10.92024-1.36503-3.412575-2.73006-6.82515-3.412575-9.55521 12.967785 6.142635 25.93557 19.11042 40.268386 23.20551 12.28527 2.047545 3.412575-8.19018 0-16.38036-2.73006-4.777605-7.507665-12.28527-8.19018-17.74539zM366.510561 757.13663c-0.682515 2.73006-4.777605 8.19018-4.09509 9.555211 0.682515 1.36503 17.062875-4.777605 17.745391-6.142636 1.36503-4.777605-6.142635-0.682515-8.190181-2.047545-2.73006-2.047545-5.46012-4.777605-6.82515-8.19018 0.682515 3.412575 1.36503 5.46012 1.36503 6.82515zM571.265065 523.716496c-2.73006 0-1.36503 4.777605-2.73006 4.777605-5.46012 0-4.09509 1.36503-12.28527 0.682515-7.507665-1.36503-22.522995-0.682515-28.665631-4.777605-2.73006-1.36503 1.36503-7.507665-3.412575-6.142635-0.682515 0-4.09509 19.792935-3.412575 20.475451 2.73006 2.73006 4.777605-4.09509 6.82515-4.777605 3.412575-0.682515 8.872695 0.682515 12.28527 1.36503 4.777605 0.682515 27.3006 0 25.935571 8.19018 0 4.09509 8.872695-20.47545 5.46012-19.792936zM570.58255 487.543201c-5.46012 2.73006-22.522995 0-29.348146-0.682515-6.142635-0.682515-10.237725 1.36503-10.92024-4.777605-1.36503-8.872695 10.92024-8.19018 10.92024-12.285271 0-2.047545-10.92024-2.73006-12.28527-2.047545-4.09509 2.047545-2.047545 15.697845-2.047545 20.475451-0.682515 2.73006-1.36503 18.427905 0.682515 22.522995 1.36503 2.047545 12.28527 5.46012 13.6503 1.36503 0.682515-2.73006-7.507665-4.777605-8.872695-7.507665-6.82515-10.92024 2.047545-10.237725 8.872695-10.237725s14.332815 0 21.840481 0.682515c6.142635 0.682515 6.142635 2.73006 10.237725 4.777605 3.412575 1.36503-2.73006 5.46012 2.73006 2.73006 1.36503-0.682515 0.682515-21.84048 0-21.84048-4.09509-0.682515-2.047545 4.77760"
        fill="#70116E" p-id="7567"></path>
</svg>