<?xml version="1.0" standalone="no"?>
<!DOCTYPE svg PUBLIC "-//W3C//DTD SVG 20010904//EN"
 "http://www.w3.org/TR/2001/REC-SVG-20010904/DTD/svg10.dtd">
<svg version="1.0" xmlns="http://www.w3.org/2000/svg"
 width="1589.000000pt" height="437.000000pt" viewBox="0 0 1589.000000 437.000000"
 preserveAspectRatio="xMidYMid meet">
<metadata>
Created by potrace 1.15, written by Peter Selinger 2001-2017
</metadata>
<g transform="translate(0.000000,437.000000) scale(0.100000,-0.100000)"
fill="#000000" stroke="none">
<path d="M1965 4359 c-903 -93 -1672 -754 -1895 -1630 -332 -1299 571 -2585
1909 -2719 718 -72 1446 236 1904 805 649 806 649 1934 0 2740 -460 572 -1192
879 -1918 804z m520 -54 c478 -69 906 -290 1241 -637 284 -295 478 -664 559
-1061 121 -596 -19 -1210 -389 -1707 -191 -256 -453 -476 -746 -624 -311 -158
-604 -229 -955 -230 -211 0 -341 15 -536 64 -751 187 -1362 798 -1549 1549
-47 189 -64 326 -64 526 0 557 205 1071 588 1473 372 390 846 615 1406 666 85
8 336 -3 445 -19z"/>
<path d="M2054 4234 c3 -9 6 -65 6 -126 l0 -110 79 3 c68 4 83 8 105 28 57 54
56 156 -1 200 -21 18 -40 21 -110 21 -74 0 -84 -2 -79 -16z m152 -35 c14 -15
19 -36 19 -75 0 -64 -24 -95 -76 -97 l-34 -2 -3 98 -3 97 39 0 c27 0 45 -7 58
-21z"/>
<path d="M2410 4233 c0 -14 -20 -175 -25 -209 l-5 -32 67 -10 c38 -5 70 -8 72
-6 2 2 1 10 -2 19 -4 9 -19 15 -42 15 -30 0 -35 3 -35 23 0 12 3 32 6 44 6 20
11 22 45 17 32 -5 39 -4 39 10 0 12 -9 16 -34 16 -42 0 -48 8 -39 50 6 31 8
32 44 27 26 -3 39 -1 43 9 5 13 1 14 -101 30 -18 3 -33 1 -33 -3z"/>
<path d="M1805 4208 c-6 -17 -55 -241 -55 -250 0 -4 7 -5 15 -2 8 3 17 21 21
40 7 39 7 39 55 48 33 6 36 4 52 -30 16 -32 21 -35 45 -29 15 4 28 8 30 10 2
1 -23 43 -54 91 -31 49 -63 99 -71 112 -15 24 -31 29 -38 10z m46 -119 c7 -13
3 -18 -17 -23 -34 -9 -37 -5 -28 40 6 35 8 36 21 18 8 -10 19 -26 24 -35z"/>
<path d="M1445 4118 l-60 -20 37 -115 c20 -64 39 -117 41 -119 6 -6 114 32
141 49 59 39 56 150 -5 201 -37 31 -71 32 -154 4z m96 -18 c41 -22 64 -114 39
-160 -8 -15 -69 -46 -75 -38 -6 8 -55 165 -55 176 0 25 59 39 91 22z"/>
<path d="M2805 4032 c-22 -59 -40 -111 -40 -115 0 -12 105 -56 133 -57 95 -1
168 132 112 203 -11 14 -44 34 -73 45 -99 37 -87 44 -132 -76z m155 28 c27
-50 -5 -141 -55 -160 -21 -8 -85 3 -85 15 0 6 60 167 65 176 8 12 64 -11 75
-31z"/>
<path d="M1218 4009 c-15 -8 -11 -21 38 -119 31 -61 59 -110 63 -110 4 0 15 6
24 13 16 11 13 21 -35 119 -29 58 -57 107 -63 107 -5 0 -18 -4 -27 -10z"/>
<path d="M3130 3913 c-24 -43 -51 -90 -61 -104 l-18 -26 59 -36 c38 -22 62
-31 66 -25 7 10 -10 27 -46 48 -12 7 -11 13 5 44 11 20 21 36 24 36 2 0 18 -9
36 -20 28 -18 34 -18 39 -5 4 11 -5 21 -28 32 l-34 16 16 33 c17 37 27 41 56
19 24 -18 46 -19 46 -2 0 10 -94 67 -112 67 -3 0 -25 -35 -48 -77z"/>
<path d="M1983 3939 c-887 -103 -1563 -862 -1563 -1754 0 -550 264 -1078 703
-1408 813 -611 1964 -416 2530 431 555 830 307 1957 -548 2482 -329 203 -740
294 -1122 249z m397 -44 c515 -61 955 -332 1244 -765 540 -810 285 -1915 -559
-2425 -786 -475 -1815 -233 -2325 545 -473 723 -327 1696 340 2254 364 305
834 447 1300 391z"/>
<path d="M2088 3673 c-24 -6 -25 -84 -2 -118 l16 -25 -56 0 c-52 0 -70 10 -46
25 6 3 10 28 10 54 0 42 -3 50 -22 55 -30 8 -123 7 -170 0 -38 -7 -38 -7 -38
-53 0 -25 7 -55 16 -66 13 -18 13 -20 -3 -27 -10 -3 -38 -7 -62 -7 l-43 -1 16
25 c9 13 16 45 16 69 0 44 -1 45 -35 52 -47 9 -183 -5 -192 -19 -11 -18 -3
-91 13 -108 10 -11 14 -42 14 -104 0 -83 -6 -115 -32 -190 -6 -16 -11 -47 -10
-67 l2 -38 -51 0 -51 0 5 -457 c4 -406 7 -471 25 -568 50 -268 144 -466 292
-613 108 -109 266 -200 415 -240 l71 -20 84 25 c161 46 349 164 442 276 104
125 179 277 223 451 43 171 47 224 52 694 l5 452 -24 0 c-16 0 -36 14 -60 43
-40 48 -46 76 -54 240 -4 79 -2 102 9 115 16 18 25 90 14 109 -9 14 -145 28
-192 19 -34 -7 -35 -8 -35 -52 0 -25 7 -56 17 -71 l18 -26 -34 6 c-18 4 -47 7
-63 7 -30 0 -30 0 -14 25 9 13 16 44 16 68 0 43 -1 45 -37 51 -48 7 -141 8
-170 0 -20 -5 -23 -13 -23 -55 0 -26 5 -51 10 -54 24 -15 6 -25 -46 -25 l-56
0 16 25 c21 32 22 111 0 119 -18 7 -170 6 -196 -1z m195 -26 c-2 -4 -3 -18 -3
-31 0 -24 -2 -25 -94 -28 l-94 -3 -4 33 c-2 18 -2 34 0 37 7 7 197 0 195 -8z
m-293 -33 l0 -32 -92 -4 c-51 -2 -93 -4 -94 -4 -1 1 -4 16 -8 35 -5 30 -4 33
14 28 11 -3 20 -2 20 2 0 5 36 8 80 8 l80 0 0 -33z m585 24 c3 -3 2 -19 -1
-37 -6 -27 -10 -32 -28 -27 -12 3 -54 6 -93 6 l-73 0 0 34 0 34 95 -2 c52 -2
97 -5 100 -8z m-875 -33 l0 -32 -92 -6 c-51 -3 -93 -5 -94 -4 -1 1 -5 17 -9
36 -7 31 -5 33 14 28 11 -3 23 -2 25 1 2 4 38 7 80 8 l76 1 0 -32z m1127 22
c6 -4 19 -4 28 -1 15 6 16 2 10 -27 -4 -19 -8 -35 -9 -36 -1 -1 -43 1 -94 4
l-92 6 0 32 0 33 73 -2 c39 0 77 -4 84 -9z m-697 -61 c0 -3 -4 -8 -10 -11 -5
-3 -10 -1 -10 4 0 6 5 11 10 11 6 0 10 -2 10 -4z m47 -2 c-3 -3 -12 -4 -19 -1
-8 3 -5 6 6 6 11 1 17 -2 13 -5z m40 0 c-3 -3 -12 -4 -19 -1 -8 3 -5 6 6 6 11
1 17 -2 13 -5z m43 -4 c0 -5 -2 -10 -4 -10 -3 0 -8 5 -11 10 -3 6 -1 10 4 10
6 0 11 -4 11 -10z m-373 -6 c-3 -3 -12 -4 -19 -1 -8 3 -5 6 6 6 11 1 17 -2 13
-5z m40 0 c-3 -3 -12 -4 -19 -1 -8 3 -5 6 6 6 11 1 17 -2 13 -5z m493 -4 c0
-5 -5 -10 -11 -10 -5 0 -7 5 -4 10 3 6 8 10 11 10 2 0 4 -4 4 -10z m87 4 c-3
-3 -12 -4 -19 -1 -8 3 -5 6 6 6 11 1 17 -2 13 -5z m50 -10 c-3 -3 -12 -4 -19
-1 -8 3 -5 6 6 6 11 1 17 -2 13 -5z m-960 -10 c-3 -3 -12 -4 -19 -1 -8 3 -5 6
6 6 11 1 17 -2 13 -5z m90 0 c-3 -3 -12 -4 -19 -1 -8 3 -5 6 6 6 11 1 17 -2
13 -5z m540 0 c19 -5 22 -15 28 -80 4 -41 5 -77 2 -80 -3 -3 -21 0 -40 7 -28
10 -41 10 -66 -1 -18 -7 -34 -10 -37 -7 -3 3 -3 39 1 81 8 79 10 82 65 85 14
0 35 -2 47 -5z m480 0 c-3 -3 -12 -4 -19 -1 -8 3 -5 6 6 6 11 1 17 -2 13 -5z
m90 0 c-3 -3 -12 -4 -19 -1 -8 3 -5 6 6 6 11 1 17 -2 13 -5z m-833 -30 c10
-25 7 -144 -4 -144 -5 0 -21 5 -35 12 -21 9 -32 8 -60 -5 l-35 -17 0 85 0 85
64 0 c49 0 65 -4 70 -16z m576 -69 l0 -85 -35 17 c-28 13 -39 14 -60 5 -41
-19 -45 -15 -45 46 0 99 3 102 76 102 l64 0 0 -85z m-857 -2 c3 -43 4 -79 2
-81 -2 -2 -20 1 -40 8 -30 10 -40 9 -60 -4 -41 -27 -45 -21 -45 69 l0 85 69 0
68 0 6 -77z m417 62 c0 -12 -13 -15 -60 -15 -47 0 -60 3 -60 15 0 12 13 15 60
15 47 0 60 -3 60 -15z m290 0 c0 -12 -13 -15 -60 -15 -47 0 -60 3 -60 15 0 12
13 15 60 15 47 0 60 -3 60 -15z m440 -70 c0 -90 -4 -96 -45 -69 -20 13 -30 14
-60 4 -20 -7 -38 -10 -40 -8 -2 2 -1 38 2 81 l6 77 68 0 69 0 0 -85z m-1020
61 c0 -18 -22 -26 -71 -26 -50 0 -55 27 -6 33 65 8 77 7 77 -7z m857 -1 c8
-23 2 -25 -55 -18 -34 4 -52 10 -52 19 0 21 99 19 107 -1z m-572 -77 c-4 -29
-14 -62 -21 -73 -8 -11 -14 -30 -14 -42 0 -27 -28 -31 -36 -5 -3 9 -12 29 -20
44 -8 14 -14 49 -14 77 l0 51 56 0 56 0 -7 -52z m285 -1 c0 -29 -6 -62 -14
-73 -8 -11 -16 -31 -18 -44 -1 -14 -11 -26 -20 -28 -14 -3 -18 3 -18 25 0 16
-6 37 -14 48 -7 11 -16 44 -20 73 l-7 52 56 0 55 0 0 -53z m-570 -9 c-1 -31
-7 -61 -15 -72 -8 -11 -15 -32 -15 -48 0 -15 -2 -28 -4 -28 -2 0 -11 -3 -20
-6 -13 -5 -16 1 -16 27 0 18 -6 40 -14 48 -8 9 -18 39 -22 68 l-6 52 38 4 c22
2 47 4 57 5 14 2 17 -6 17 -50z m849 43 c17 -11 7 -94 -15 -125 -8 -11 -14
-33 -14 -48 0 -30 -1 -31 -24 -22 -9 4 -16 18 -16 33 0 15 -7 36 -15 47 -8 11
-14 41 -15 72 l0 52 43 0 c23 0 48 -4 56 -9z m-759 -87 c0 -8 -4 -12 -10 -9
-5 3 -10 10 -10 16 0 5 5 9 10 9 6 0 10 -7 10 -16z m25 6 c3 -5 1 -10 -4 -10
-6 0 -11 5 -11 10 0 6 2 10 4 10 3 0 8 -4 11 -10z m235 0 c0 -5 -5 -10 -11
-10 -5 0 -7 5 -4 10 3 6 8 10 11 10 2 0 4 -4 4 -10z m310 0 c0 -5 -4 -10 -10
-10 -5 0 -10 5 -10 10 0 6 5 10 10 10 6 0 10 -4 10 -10z m-863 -22 c-3 -8 -6
-5 -6 6 -1 11 2 17 5 13 3 -3 4 -12 1 -19z m260 0 c-3 -8 -6 -5 -6 6 -1 11 2
17 5 13 3 -3 4 -12 1 -19z m368 12 c3 -5 1 -10 -4 -10 -6 0 -11 5 -11 10 0 6
2 10 4 10 3 0 8 -4 11 -10z m205 -6 c0 -8 -5 -12 -10 -9 -6 4 -8 11 -5 16 9
14 15 11 15 -7z m60 12 c0 -3 -4 -8 -10 -11 -5 -3 -10 -1 -10 4 0 6 5 11 10
11 6 0 10 -2 10 -4z m247 -18 c-3 -8 -6 -5 -6 6 -1 11 2 17 5 13 3 -3 4 -12 1
-19z m-1097 8 c0 -3 -4 -8 -10 -11 -5 -3 -10 -1 -10 4 0 6 5 11 10 11 6 0 10
-2 10 -4z m300 -6 c0 -5 -5 -10 -11 -10 -5 0 -7 5 -4 10 3 6 8 10 11 10 2 0 4
-4 4 -10z m570 0 c0 -5 -5 -10 -11 -10 -5 0 -7 5 -4 10 3 6 8 10 11 10 2 0 4
-4 4 -10z m270 6 c0 -3 -4 -8 -10 -11 -5 -3 -10 -1 -10 4 0 6 5 11 10 11 6 0
10 -2 10 -4z m-1200 -16 c0 -5 -4 -10 -10 -10 -5 0 -7 -7 -4 -15 4 -8 1 -15
-5 -15 -12 0 -14 11 -5 34 7 18 24 22 24 6z m555 0 c3 -5 1 -10 -4 -10 -6 0
-11 5 -11 10 0 6 2 10 4 10 3 0 8 -4 11 -10z m585 0 c0 -5 -2 -10 -4 -10 -3 0
-8 5 -11 10 -3 6 -1 10 4 10 6 0 11 -4 11 -10z m-875 -10 c3 -5 1 -10 -4 -10
-6 0 -11 5 -11 10 0 6 2 10 4 10 3 0 8 -4 11 -10z m570 0 c3 -5 1 -10 -4 -10
-6 0 -11 5 -11 10 0 6 2 10 4 10 3 0 8 -4 11 -10z m-465 -10 c0 -5 -4 -10 -10
-10 -5 0 -10 5 -10 10 0 6 5 10 10 10 6 0 10 -4 10 -10z m170 0 c8 -5 11 -12
7 -17 -5 -4 -12 -1 -17 7 -7 11 -10 8 -10 -12 0 -18 -5 -28 -15 -28 -10 0 -15
10 -15 30 0 32 19 40 50 20z m160 -15 c0 -15 -6 -25 -14 -25 -7 0 -16 11 -18
25 -4 19 -1 25 13 25 14 0 19 -7 19 -25z m240 15 c0 -5 -4 -10 -10 -10 -5 0
-10 5 -10 10 0 6 5 10 10 10 6 0 10 -4 10 -10z m180 0 c0 -5 -5 -10 -11 -10
-5 0 -7 5 -4 10 3 6 8 10 11 10 2 0 4 -4 4 -10z m-1030 -10 c0 -5 -4 -10 -10
-10 -5 0 -10 5 -10 10 0 6 5 10 10 10 6 0 10 -4 10 -10z m150 -15 c0 -16 -6
-25 -15 -25 -9 0 -15 9 -15 25 0 16 6 25 15 25 9 0 15 -9 15 -25z m178 -3 c2
-12 0 -22 -5 -23 -4 0 -21 -2 -38 -4 -16 -2 -22 -1 -12 2 10 3 17 14 17 29 0
33 34 29 38 -4z m392 3 c0 -16 6 -25 16 -25 8 0 12 -5 9 -10 -4 -6 -10 -8 -15
-5 -4 3 -10 -1 -13 -7 -9 -26 -40 18 -33 46 8 34 36 34 36 1z m170 0 c0 -16
-6 -25 -15 -25 -9 0 -15 9 -15 25 0 16 6 25 15 25 9 0 15 -9 15 -25z m-1032
-26 c-31 -20 -39 -1 -10 27 16 17 17 17 20 -1 2 -9 -2 -21 -10 -26z m186 9 c7
-36 5 -41 -18 -32 -10 4 -16 17 -16 35 0 40 26 38 34 -3z m526 28 c0 -3 -4 -8
-10 -11 -5 -3 -10 -1 -10 4 0 6 5 11 10 11 6 0 10 -2 10 -4z m428 -13 c-5 -25
-28 -28 -28 -4 0 12 6 21 16 21 9 0 14 -7 12 -17z m170 5 c7 -7 12 -25 12 -40
0 -26 -2 -28 -20 -18 -13 7 -20 21 -20 40 0 32 9 37 28 18z m-988 -8 c0 -5 -4
-10 -10 -10 -5 0 -10 5 -10 10 0 6 5 10 10 10 6 0 10 -4 10 -10z m100 0 c0 -5
-2 -10 -4 -10 -3 0 -8 5 -11 10 -3 6 -1 10 4 10 6 0 11 -4 11 -10z m570 0 c0
-5 -4 -10 -10 -10 -5 0 -10 5 -10 10 0 6 5 10 10 10 6 0 10 -4 10 -10z m-950
-4 c0 -3 -4 -8 -10 -11 -5 -3 -10 -1 -10 4 0 6 5 11 10 11 6 0 10 -2 10 -4z
m100 -6 c0 -5 -4 -10 -10 -10 -5 0 -10 5 -10 10 0 6 5 10 10 10 6 0 10 -4 10
-10z m13 -48 c45 -20 107 -68 107 -83 0 -5 -24 -9 -53 -9 -42 0 -58 5 -73 21
-17 19 -65 49 -79 49 -14 0 -3 -19 15 -25 11 -3 25 -15 30 -26 10 -18 7 -19
-60 -19 -66 0 -71 2 -82 26 -15 33 5 75 42 86 36 10 105 1 153 -20z m459 0
c46 -20 108 -68 108 -83 0 -5 -24 -9 -53 -9 -42 0 -58 5 -73 21 -24 27 -74 53
-82 43 -4 -4 -1 -9 7 -12 7 -2 23 -14 35 -26 l21 -21 -34 -3 c-29 -3 -41 3
-79 41 l-45 45 29 16 c36 20 106 15 166 -12z m466 -2 c46 -21 102 -66 102 -82
0 -4 -24 -8 -53 -8 -42 0 -58 5 -73 21 -17 19 -65 49 -79 49 -15 0 -2 -17 25
-32 41 -23 38 -38 -7 -38 -32 1 -44 7 -76 45 l-39 45 34 15 c41 19 102 13 166
-15z m342 -280 l0 -160 -61 0 c-55 0 -86 11 -364 130 -234 100 -313 130 -347
130 -33 0 -115 -31 -347 -130 -283 -121 -307 -130 -367 -130 l-64 0 0 160 0
160 775 0 775 0 0 -160z m-418 -49 c273 -117 311 -131 362 -131 36 0 55 -4 51
-10 -3 -5 -27 -10 -52 -10 -37 0 -110 27 -366 136 -279 119 -324 136 -361 132
-22 -3 -179 -64 -348 -137 -271 -116 -313 -131 -362 -131 -31 0 -56 5 -56 10
0 6 27 10 61 10 55 0 86 11 362 129 166 71 309 131 317 134 36 15 104 -8 392
-132z m-287 68 c46 -17 55 -24 55 -45 0 -14 -6 -24 -15 -24 -14 0 -18 4 -53
47 -9 12 -29 25 -44 29 -23 5 -34 -1 -68 -35 -46 -46 -73 -54 -68 -19 2 17 17
29 58 45 68 28 67 28 135 2z m-33 -26 c16 -14 18 -33 18 -154 0 -81 4 -140 10
-144 6 -4 10 5 10 19 0 24 2 25 25 14 14 -6 25 -18 25 -27 0 -13 2 -13 9 -2 6
10 13 11 29 2 33 -17 42 -13 42 19 0 28 2 30 20 20 11 -6 20 -17 20 -25 0 -18
17 -20 23 -2 3 9 8 9 21 -2 9 -8 30 -16 47 -18 26 -3 29 0 29 27 0 38 30 30
31 -9 l0 -26 10 25 c10 24 11 24 24 6 8 -10 18 -15 24 -12 5 4 12 2 16 -4 3
-5 17 -10 31 -10 20 0 24 5 24 30 0 17 5 30 10 30 6 0 10 -11 10 -25 0 -28 19
-35 21 -7 1 16 2 16 6 0 5 -20 23 -25 23 -6 0 6 7 3 15 -8 9 -12 14 -14 15 -6
0 8 5 10 13 5 34 -21 47 -14 49 30 l1 42 7 -45 7 -45 3 40 c3 36 3 37 7 10 7
-50 23 -53 25 -5 l1 45 7 -45 c7 -45 7 -45 8 -8 3 61 22 56 22 -6 l0 -56 -775
0 -775 0 0 55 c0 64 19 75 22 13 l1 -43 7 45 7 45 1 -37 c1 -21 6 -38 11 -38
6 0 12 17 14 38 l4 37 3 -45 3 -45 7 45 7 45 1 -42 c2 -35 5 -43 21 -43 11 0
23 5 26 10 4 6 11 7 17 4 6 -4 14 0 19 7 6 10 9 11 9 2 0 -20 20 -15 21 5 0
12 3 10 12 -8 l11 -25 4 33 c4 40 22 42 22 2 0 -25 4 -30 23 -30 13 0 29 6 35
12 10 10 15 10 22 -2 8 -13 10 -13 10 1 0 27 28 31 33 6 4 -19 4 -18 6 4 0 15
8 29 16 33 11 4 15 -2 15 -25 0 -29 1 -30 33 -24 17 4 38 12 45 18 9 7 17 5
27 -9 14 -18 14 -18 15 3 0 12 9 27 20 33 18 10 20 8 20 -20 0 -32 9 -36 42
-19 16 9 23 8 29 -2 7 -11 9 -11 9 2 0 9 11 21 25 27 22 10 25 9 25 -8 0 -10
5 -22 10 -25 6 -4 10 43 10 134 0 128 2 143 20 161 24 24 47 25 72 3z m-188
-60 c-26 -19 -34 -16 -34 10 0 15 8 28 23 34 19 9 23 7 25 -10 2 -12 -4 -27
-14 -34z m317 47 c17 -10 28 -60 13 -60 -20 0 -44 24 -44 45 0 28 3 29 31 15z
m-388 -77 c-16 -13 -18 -12 -21 8 -3 14 4 28 15 36 16 13 18 12 21 -8 3 -14
-4 -28 -15 -36z m451 51 c10 -4 16 -18 16 -35 0 -27 -2 -29 -20 -19 -12 6 -20
21 -20 35 0 27 1 28 24 19z m-307 -58 c-3 -7 -15 -16 -26 -19 -18 -4 -21 -1
-21 22 0 35 43 61 48 29 2 -11 1 -25 -1 -32z m203 3 c0 -27 -2 -28 -25 -17
-18 8 -25 19 -25 39 0 27 2 28 25 17 18 -8 25 -19 25 -39z m-390 7 c0 -13 -7
-26 -15 -30 -11 -4 -15 1 -15 18 0 12 3 26 7 29 13 14 23 6 23 -17z m568 -10
c3 -23 0 -28 -13 -22 -9 3 -19 6 -21 6 -2 0 -4 12 -4 26 0 37 34 28 38 -10z
m-450 -37 c-24 -16 -38 -9 -38 16 0 17 7 28 23 34 19 7 22 5 25 -17 2 -14 -2
-29 -10 -33z m313 51 c17 -10 28 -60 13 -60 -20 0 -44 24 -44 45 0 28 3 29 31
15z m-485 -46 c-3 -8 -10 -14 -16 -14 -14 0 -12 47 3 53 14 5 21 -17 13 -39z
m662 12 c3 -20 0 -27 -10 -24 -7 3 -14 17 -16 32 -3 20 0 27 10 24 7 -3 14
-17 16 -32z m-712 -32 c-3 -8 -10 -14 -16 -14 -14 0 -12 47 3 53 14 5 21 -17
13 -39z m152 -15 c-22 -14 -28 -10 -28 20 0 20 6 31 18 33 21 4 30 -41 10 -53z
m446 55 c10 -4 16 -18 16 -36 0 -23 -4 -29 -16 -24 -9 3 -18 6 -20 6 -2 0 -4
14 -4 30 0 32 1 33 24 24z m164 -28 c3 -20 0 -27 -10 -24 -7 3 -14 17 -16 32
-3 20 0 27 10 24 7 -3 14 -17 16 -32z m-800 -13 c-4 -34 -28 -43 -28 -10 0 25
7 37 22 37 5 0 8 -12 6 -27z m332 3 c0 -22 -16 -36 -41 -36 -16 0 -10 39 9 49
26 16 32 13 32 -13z m181 14 c19 -11 27 -50 10 -50 -25 0 -41 14 -41 36 0 27
3 28 31 14z m329 -20 c0 -22 -4 -28 -15 -24 -8 4 -15 17 -15 30 0 15 6 24 15
24 10 0 15 -10 15 -30z m-702 -7 c-4 -34 -28 -43 -28 -10 0 25 7 37 22 37 5 0
8 -12 6 -27z m560 15 c7 -7 12 -20 12 -31 0 -30 -34 -16 -38 16 -4 29 6 35 26
15z m-738 -17 c0 -10 -7 -24 -15 -31 -13 -10 -15 -9 -15 12 0 14 3 28 7 31 12
13 23 7 23 -12z m920 -12 c0 -17 -4 -28 -10 -24 -5 3 -10 17 -10 31 0 13 5 24
10 24 6 0 10 -14 10 -31z m-790 -9 c0 -20 -5 -30 -15 -30 -15 0 -21 40 -8 53
14 15 23 6 23 -23z m180 10 c0 -16 -26 -40 -44 -40 -12 0 -6 49 7 53 25 11 37
6 37 -13z m304 14 c15 -6 24 -54 10 -54 -18 0 -44 24 -44 40 0 21 8 24 34 14z
m174 -28 c3 -20 0 -27 -10 -24 -7 3 -14 17 -16 32 -3 20 0 27 10 24 7 -3 14
-17 16 -32z m172 -2 c0 -13 -4 -24 -10 -24 -5 0 -10 14 -10 31 0 17 4 28 10
24 6 -3 10 -17 10 -31z m-1000 7 c0 -11 -4 -23 -10 -26 -6 -4 -10 5 -10 19 0
14 5 26 10 26 6 0 10 -9 10 -19z m-49 -44 c-8 -8 -11 -4 -11 14 0 33 14 47 18
19 2 -12 -1 -27 -7 -33z m169 23 c0 -20 -5 -30 -15 -30 -15 0 -21 40 -8 53 14
15 23 6 23 -23z m160 1 c0 -20 -6 -30 -20 -34 -16 -4 -20 0 -20 18 0 19 20 43
38 45 1 0 2 -13 2 -29z m450 -17 c0 -22 -2 -23 -20 -14 -12 6 -20 21 -20 36 0
22 2 23 20 14 12 -6 20 -21 20 -36z m148 13 c2 -19 -1 -27 -12 -27 -11 0 -16
10 -16 31 0 38 24 35 28 -4z m152 2 c0 -17 -4 -28 -10 -24 -5 3 -10 17 -10 31
0 13 5 24 10 24 6 0 10 -14 10 -31z m27 -26 c-3 -10 -5 -2 -5 17 0 19 2 27 5
18 2 -10 2 -26 0 -35z m-1140 0 c-3 -10 -5 -4 -5 12 0 17 2 24 5 18 2 -7 2
-21 0 -30z m161 10 c-4 -34 -28 -43 -28 -10 0 25 7 37 22 37 5 0 8 -12 6 -27z
m332 3 c0 -22 -16 -36 -41 -36 -16 0 -10 39 9 49 26 16 32 13 32 -13z m184 18
c17 -6 23 -54 7 -54 -25 0 -41 14 -41 36 0 25 7 28 34 18z m324 -28 c3 -20 0
-27 -10 -24 -7 3 -14 17 -16 32 -3 20 0 27 10 24 7 -3 14 -17 16 -32z m-1031
-13 c-3 -10 -5 -4 -5 12 0 17 2 24 5 18 2 -7 2 -21 0 -30z m331 10 c-4 -34
-28 -43 -28 -10 0 25 7 37 22 37 5 0 8 -12 6 -27z m560 15 c7 -7 12 -20 12
-31 0 -30 -34 -16 -38 16 -4 29 6 35 26 15z m309 -25 c-3 -10 -5 -4 -5 12 0
17 2 24 5 18 2 -7 2 -21 0 -30z m-1230 -20 c-3 -10 -5 -2 -5 17 0 19 2 27 5
18 2 -10 2 -26 0 -35z m181 20 c-4 -34 -28 -43 -28 -10 0 25 7 37 22 37 5 0 8
-12 6 -27z m296 -30 c-26 -19 -34 -16 -34 10 0 15 8 28 23 34 19 9 23 7 25
-10 2 -12 -4 -27 -14 -34z m334 13 c4 -29 0 -31 -29 -16 -11 6 -19 21 -19 35
0 21 3 23 23 16 14 -5 23 -18 25 -35z m292 14 c0 -16 -4 -30 -10 -30 -5 0 -10
14 -10 30 0 17 5 30 10 30 6 0 10 -13 10 -30z m157 -17 c-3 -10 -5 -2 -5 17 0
19 2 27 5 18 2 -10 2 -26 0 -35z m-1290 -10 c-3 -10 -5 -2 -5 17 0 19 2 27 5
18 2 -10 2 -26 0 -35z m339 1 c-3 -8 -10 -14 -16 -14 -14 0 -12 47 3 53 14 5
21 -17 13 -39z m664 9 c0 -33 -24 -25 -28 10 -3 21 0 26 12 21 9 -3 16 -17 16
-31z m317 -10 c-3 -10 -5 -2 -5 17 0 19 2 27 5 18 2 -10 2 -26 0 -35z m-1147
12 c0 -14 -4 -25 -10 -25 -5 0 -10 11 -10 25 0 14 5 25 10 25 6 0 10 -11 10
-25z m1000 0 c0 -14 -4 -25 -10 -25 -5 0 -10 11 -10 25 0 14 5 25 10 25 6 0
10 -11 10 -25z m260 -144 c0 -23 -5 -30 -27 -34 -16 -3 -50 -24 -77 -46 -26
-23 -56 -41 -65 -41 -10 0 -42 18 -72 40 -52 40 -72 48 -114 52 -52 4 -79 -5
-139 -47 -37 -25 -74 -45 -83 -45 -9 0 -39 18 -67 39 -100 77 -176 75 -280 -8
-21 -17 -48 -31 -59 -31 -11 0 -50 19 -86 43 -60 39 -70 42 -131 42 -60 0 -69
-3 -125 -42 -34 -24 -70 -43 -82 -43 -12 0 -40 16 -64 35 -23 20 -50 40 -60
46 -12 6 -19 21 -19 39 l0 30 775 0 775 0 0 -29z m-560 -171 c0 -6 -76 -10
-209 -10 -114 0 -228 -3 -252 -6 -32 -4 -50 -1 -64 10 -18 14 5 15 253 16 175
0 272 -4 272 -10z m-476 -40 c25 0 26 -2 26 -70 0 -72 -2 -75 -45 -70 -37 4
-45 20 -45 92 0 65 1 68 19 58 11 -5 31 -10 45 -10z m-118 -11 l34 -21 0 -82
0 -83 -39 10 c-50 14 -103 -1 -162 -46 -59 -44 -75 -50 -107 -32 -47 25 -102
83 -102 107 0 13 -3 47 -7 77 l-6 54 45 -27 c72 -42 128 -37 214 19 38 24 75
45 83 45 7 0 29 -9 47 -21z m817 9 c12 -6 39 -25 60 -42 31 -25 49 -31 100
-34 64 -3 68 -1 146 55 l24 18 -6 -85 c-6 -69 -11 -88 -28 -100 -11 -8 -38
-30 -60 -47 -49 -40 -74 -41 -120 -7 -67 50 -109 67 -161 62 l-48 -5 0 81 c0
78 1 82 28 98 33 21 37 21 65 6z m-223 -17 c0 -13 9 -20 30 -25 24 -4 32 -12
36 -36 5 -21 12 -30 25 -30 17 0 19 -8 19 -70 l0 -70 -30 0 -30 0 0 -100 0
-100 30 0 30 0 0 -65 c0 -58 -2 -65 -20 -65 -14 0 -20 -7 -20 -23 0 -27 -17
-47 -41 -47 -11 0 -19 -9 -21 -22 -3 -23 -3 -23 -220 -26 l-218 -2 0 350 0
350 215 0 c204 0 215 -1 215 -19z m110 -26 c0 -50 -11 -58 -28 -20 -7 14 -23
30 -37 37 -38 17 -30 28 20 28 l45 0 0 -45z m-593 -115 c18 0 33 -4 33 -10 0
-13 -46 -13 -71 0 -10 6 -19 16 -19 22 0 9 3 9 12 0 7 -7 27 -12 45 -12z m7
-40 c25 0 26 -2 26 -65 0 -61 -1 -65 -23 -65 -12 0 -33 7 -45 16 -19 13 -22
24 -22 75 0 56 1 59 19 49 11 -5 31 -10 45 -10z m586 -151 c0 -78 -1 -80 -22
-77 -21 3 -23 9 -26 81 -3 77 -3 77 23 77 25 0 25 -1 25 -81z m-577 7 c9 0 17
-4 17 -8 0 -15 -67 -8 -81 8 -11 13 -9 14 17 8 16 -4 37 -8 47 -8z m-127 -27
l34 -21 0 -81 0 -82 -69 0 c-63 0 -73 -3 -126 -39 -47 -33 -58 -37 -66 -25
-13 18 -64 129 -73 157 -7 21 -5 22 32 16 44 -7 92 11 176 64 28 18 52 32 54
32 3 0 20 -9 38 -21z m118 -9 c25 0 26 -2 26 -65 l0 -65 -33 0 c-47 0 -57 15
-57 87 0 60 1 63 19 53 11 -5 31 -10 45 -10z m754 -20 c60 -45 108 -58 159
-42 34 10 35 10 29 -13 -8 -31 -61 -146 -78 -168 -12 -17 -17 -15 -67 22 -57
43 -98 56 -156 49 l-35 -4 0 83 c0 80 1 83 28 97 42 23 63 19 120 -24z m-761
-130 c18 0 33 -4 33 -10 0 -13 -46 -13 -71 0 -10 6 -19 16 -19 22 0 9 3 9 12
0 7 -7 27 -12 45 -12z m7 -40 c25 0 26 -2 26 -65 0 -63 -1 -65 -26 -65 -53 0
-64 15 -64 86 0 61 1 64 19 54 11 -5 31 -10 45 -10z m586 -75 l0 -45 -45 0
c-25 0 -45 5 -45 10 0 6 5 10 12 10 16 0 58 41 58 57 0 7 5 13 10 13 6 0 10
-20 10 -45z m-666 -122 c64 -45 73 -48 131 -48 59 0 68 3 132 48 39 26 76 47
83 47 7 0 39 -20 71 -44 94 -71 146 -70 270 4 65 40 69 41 96 26 58 -29 58
-39 1 -93 -64 -60 -123 -100 -206 -142 l-63 -32 -40 32 c-39 31 -98 58 -129
59 -35 0 -93 -23 -135 -55 l-45 -35 -63 31 c-34 18 -82 45 -107 62 -53 36
-150 126 -150 139 0 9 60 48 75 48 5 0 41 -21 79 -47z"/>
<path d="M2167 3494 c-4 -4 -7 -22 -7 -41 0 -29 3 -33 26 -33 23 0 25 3 22 37
-3 36 -23 54 -41 37z"/>
<path d="M1887 3484 c-4 -4 -7 -22 -7 -41 0 -27 4 -33 21 -33 17 0 20 5 17 37
-3 35 -17 51 -31 37z"/>
<path d="M2457 3484 c-4 -4 -7 -22 -7 -41 0 -27 4 -33 21 -33 17 0 20 5 17 37
-3 35 -17 51 -31 37z"/>
<path d="M1603 3473 c-13 -5 -18 -64 -7 -76 15 -14 34 8 34 38 0 36 -7 45 -27
38z"/>
<path d="M2746 3473 c-12 -12 -6 -71 8 -76 20 -8 26 1 26 39 0 30 -20 51 -34
37z"/>
<path d="M2320 2259 c0 -23 -200 -349 -214 -349 -5 0 -15 -8 -22 -17 -9 -13
-25 -18 -58 -16 -38 1 -46 -2 -46 -16 0 -9 5 -22 10 -27 18 -18 29 -71 17 -83
-8 -8 -6 -16 7 -29 16 -16 18 -16 32 3 11 15 27 20 66 21 57 1 67 11 44 47
-26 38 -14 97 34 177 42 70 56 80 77 59 15 -15 33 -3 33 22 0 21 8 23 30 9 13
-8 12 -12 -8 -25 -24 -17 -22 -29 8 -45 15 -8 22 -4 39 24 12 18 21 36 21 39
0 3 -23 19 -51 37 -28 17 -49 33 -46 36 2 3 28 -10 56 -27 28 -18 53 -30 54
-28 2 2 13 18 25 36 l22 32 -21 15 c-26 18 -39 13 -39 -15 0 -10 -6 -19 -14
-19 -23 0 -31 22 -12 32 22 12 20 31 -6 47 l-21 13 23 18 c21 15 22 20 11 34
-20 24 -51 20 -51 -5z m-223 -471 c-23 -14 -45 -8 -51 15 -9 34 -8 35 22 39
21 2 28 -2 34 -22 5 -15 3 -27 -5 -32z"/>
<path d="M2480 1980 c0 -5 5 -10 10 -10 6 0 10 5 10 10 0 6 -4 10 -10 10 -5 0
-10 -4 -10 -10z"/>
<path d="M1228 2076 c-55 -15 -112 -56 -132 -94 -11 -22 -12 -52 -3 -169 l11
-143 -36 -36 c-57 -57 -64 -82 -39 -152 30 -87 41 -171 41 -310 0 -88 4 -131
14 -151 85 -163 549 -281 1105 -281 552 1 1013 119 1097 281 10 20 14 63 14
153 0 127 17 246 46 323 20 52 10 83 -44 139 l-36 37 11 141 c13 162 10 174
-54 222 -77 58 -179 63 -232 9 l-26 -25 -7 -238 c-4 -130 -10 -254 -14 -274
-9 -54 1 -83 46 -132 l40 -43 -73 -22 c-202 -60 -525 -103 -772 -103 -246 0
-569 43 -772 103 l-73 22 40 43 c48 53 56 81 43 158 -6 34 -11 146 -12 249 -1
104 -4 202 -8 218 -6 33 -55 79 -83 79 -10 0 -24 2 -32 4 -7 3 -34 -1 -60 -8z
m127 -38 c25 -19 27 -26 22 -72 -4 -52 -24 -113 -32 -104 -3 3 2 21 10 41 48
116 -30 182 -150 126 -80 -38 -107 -94 -60 -125 31 -20 91 -11 140 22 l35 23
-1 -37 c-1 -23 -3 -29 -6 -14 -5 26 -7 27 -37 7 -13 -9 -46 -18 -74 -22 -45
-5 -53 -3 -76 20 -31 31 -31 33 -6 74 43 72 177 107 235 61z m1825 -2 c40 -20
90 -74 90 -98 0 -5 -12 -21 -26 -35 -22 -22 -32 -25 -68 -21 -24 3 -58 13 -76
22 -41 20 -38 21 -43 -11 -3 -20 -4 -16 -6 14 l-1 42 35 -23 c49 -33 109 -42
140 -22 47 31 20 87 -60 125 -89 42 -165 15 -165 -57 1 -83 57 -165 182 -263
48 -38 88 -72 88 -74 0 -3 -40 26 -90 65 -136 108 -180 170 -188 266 -4 46 -2
53 23 72 37 30 106 29 165 -2z m-1835 -30 c11 -17 14 -35 10 -60 -8 -43 -25
-38 -25 6 l0 32 -27 -26 c-16 -15 -41 -32 -56 -37 -36 -14 -94 -14 -102 0 -27
42 57 109 137 109 39 0 50 -4 63 -24z m1830 1 c73 -41 78 -97 9 -97 -44 0 -83
16 -116 48 l-28 26 0 -43 c0 -50 -15 -47 -23 6 -4 25 -2 45 9 60 20 32 93 32
149 0z m-1907 -204 c-18 -19 -59 -55 -90 -80 l-58 -44 0 85 c0 46 -2 91 -5 98
-5 12 6 14 52 10 37 -3 71 1 93 10 l35 15 3 -30 c3 -22 -5 -38 -30 -64z m1935
69 c46 4 57 2 52 -10 -3 -7 -5 -52 -5 -99 l0 -85 -47 37 c-101 80 -133 117
-133 152 l0 32 37 -16 c25 -10 57 -14 96 -11z m-1798 -368 l8 -62 -43 -46
c-23 -25 -50 -46 -58 -46 -34 0 -163 74 -202 116 -66 72 -58 93 78 201 110 87
166 144 184 188 12 27 14 13 19 -130 4 -88 10 -188 14 -221z m1647 275 c18
-19 77 -70 130 -112 136 -108 144 -129 78 -201 -39 -42 -168 -116 -202 -116
-8 0 -34 21 -58 46 -41 44 -42 47 -36 97 3 29 9 128 12 222 l6 169 18 -34 c10
-19 33 -51 52 -71z m-1732 41 c-18 -26 -108 -106 -151 -135 -8 -5 3 6 25 25
23 18 64 58 91 87 58 60 65 65 35 23z m-180 -153 c0 -2 -10 -12 -22 -23 l-23
-19 19 23 c18 21 26 27 26 19z m102 -317 c237 -111 755 -187 1095 -162 427 32
773 121 918 234 26 21 33 24 20 9 -11 -12 -46 -39 -77 -58 -32 -20 -56 -38
-54 -40 7 -8 84 36 122 70 36 31 37 31 30 7 -4 -14 -10 -97 -13 -185 -2 -88
-9 -172 -15 -188 -44 -113 -314 -210 -723 -259 -129 -15 -579 -15 -715 0 -405
46 -684 145 -728 259 -6 16 -13 100 -15 188 -3 88 -9 171 -13 185 -7 24 -6 24
30 -7 38 -34 115 -78 122 -70 2 2 -22 20 -54 40 -31 19 -66 46 -77 58 -13 15
-6 12 20 -9 22 -17 79 -49 127 -72z"/>
<path d="M2985 1193 c-58 -18 -62 -20 -49 -32 5 -6 33 2 69 19 66 31 58 36
-20 13z"/>
<path d="M1240 1171 c0 -15 6 -21 21 -21 18 0 20 -4 14 -27 -3 -16 -9 -44 -12
-63 -5 -30 -4 -33 9 -22 13 10 26 55 32 105 1 5 10 15 20 23 18 13 17 14 -16
14 -20 0 -43 3 -52 6 -12 4 -16 0 -16 -15z"/>
<path d="M3020 1159 c-30 -16 -65 -29 -77 -29 -13 0 -23 -4 -23 -10 0 -28 126
15 159 54 18 21 6 18 -59 -15z"/>
<path d="M1690 1155 c0 -8 -7 -15 -15 -15 -8 0 -15 -4 -15 -10 0 -5 17 -8 37
-7 29 1 38 -2 41 -15 3 -15 -4 -18 -34 -18 -41 0 -37 -15 6 -23 25 -4 25 -4
-2 -6 -15 0 -30 -6 -34 -12 -5 -8 3 -10 25 -7 17 2 31 1 31 -4 0 -4 -9 -8 -19
-8 -11 0 -23 -4 -26 -10 -3 -5 -1 -10 5 -10 6 0 8 -4 5 -10 -3 -5 -17 -10 -31
-10 -13 0 -24 -5 -24 -10 0 -6 12 -8 28 -5 25 6 25 5 10 -8 -22 -17 -23 -28
-3 -21 9 4 15 0 15 -10 0 -11 -9 -16 -30 -16 -23 0 -30 -5 -30 -19 0 -17 3
-18 38 -5 49 17 102 18 102 1 0 -15 41 -57 55 -57 5 0 -1 10 -12 23 -33 36
-35 54 -7 61 13 4 24 11 24 16 0 14 -24 12 -38 -2 -9 -9 -12 -7 -12 10 0 16 6
22 23 23 12 0 16 3 9 6 -10 4 -10 8 -1 19 9 11 8 14 -5 14 -9 0 -16 5 -16 10
0 18 -18 10 -23 -10 -5 -20 -47 -29 -47 -10 0 6 7 10 15 10 8 0 15 7 15 15 0
11 11 15 37 15 43 0 34 16 -12 23 -27 4 -26 4 8 6 20 0 37 6 37 11 0 6 -17 10
-37 10 l-38 1 28 15 c22 12 31 13 43 3 20 -17 17 2 -5 29 -22 25 -31 28 -31 8
0 -25 -27 -25 -51 0 -26 28 -39 31 -39 9z m70 -205 c0 -25 -4 -30 -25 -30 -19
0 -25 5 -25 22 0 20 1 21 20 3 24 -22 27 -9 3 17 -15 17 -15 18 5 18 18 0 22
-6 22 -30z"/>
<path d="M2853 1111 c-19 -24 -20 -31 -9 -40 11 -9 16 -9 22 0 10 17 32 -44
33 -89 1 -22 5 -32 14 -29 17 6 11 60 -12 108 -11 21 -17 48 -14 59 7 28 -8
24 -34 -9z"/>
<path d="M1355 1120 c-13 -22 87 -59 114 -41 10 6 3 12 -25 21 -22 7 -43 16
-48 21 -13 12 -33 11 -41 -1z"/>
<path d="M3002 1112 c-18 -10 -30 -21 -26 -25 4 -3 15 -2 25 4 11 5 19 6 19 1
0 -5 -10 -14 -22 -20 -42 -20 5 -12 50 8 25 11 42 25 40 32 -7 20 -49 20 -86
0z m68 -2 c-8 -5 -22 -10 -30 -10 -13 0 -13 1 0 10 8 5 22 10 30 10 13 0 13
-1 0 -10z"/>
<path d="M2190 1105 c0 -8 -7 -15 -15 -15 -11 0 -15 -11 -15 -40 0 -37 2 -39
37 -46 58 -11 87 5 91 49 2 28 0 37 -13 37 -8 0 -18 7 -21 15 -8 21 -24 19
-24 -2 -1 -17 -1 -17 -14 0 -16 21 -26 22 -26 2z m10 -35 c0 -5 -7 -10 -16
-10 -8 0 -12 5 -9 10 3 6 10 10 16 10 5 0 9 -4 9 -10z m35 0 c3 -5 1 -10 -4
-10 -6 0 -11 5 -11 10 0 6 2 10 4 10 3 0 8 -4 11 -10z m40 0 c3 -5 -1 -10 -9
-10 -9 0 -16 5 -16 10 0 6 4 10 9 10 6 0 13 -4 16 -10z m-75 -40 c0 -5 -4 -10
-10 -10 -5 0 -10 5 -10 10 0 6 5 10 10 10 6 0 10 -4 10 -10z m40 0 c0 -5 -4
-10 -10 -10 -5 0 -10 5 -10 10 0 6 5 10 10 10 6 0 10 -4 10 -10z m30 0 c0 -5
-4 -10 -10 -10 -5 0 -10 5 -10 10 0 6 5 10 10 10 6 0 10 -4 10 -10z"/>
<path d="M2040 1080 c0 -5 23 -10 50 -10 28 0 50 5 50 10 0 6 -22 10 -50 10
-27 0 -50 -4 -50 -10z"/>
<path d="M3060 1070 c-19 -11 -43 -19 -54 -20 -15 0 -17 -5 -11 -27 4 -16 9
-30 11 -32 8 -8 124 52 124 64 0 12 -20 35 -29 35 -4 -1 -22 -9 -41 -20z m44
-9 c7 -11 -9 -24 -52 -41 -29 -11 -35 -11 -42 1 -7 10 2 18 33 30 52 21 54 21
61 10z"/>
<path d="M2490 1055 c0 -14 7 -28 15 -31 8 -4 15 -15 15 -26 0 -16 -5 -18 -31
-14 -24 4 -30 1 -27 -12 2 -10 13 -17 26 -16 25 1 29 -18 7 -40 -8 -8 -15 -22
-15 -32 0 -16 1 -16 20 1 11 10 22 26 26 37 6 19 6 19 21 -1 18 -27 38 -27 57
1 22 31 20 45 -4 23 -10 -9 -26 -15 -35 -12 -19 8 -20 37 -1 37 7 0 19 7 26
15 11 13 8 14 -19 9 -41 -8 -42 14 -1 29 43 16 37 30 -10 22 -36 -6 -40 -5
-40 14 0 12 -6 21 -15 21 -9 0 -15 -9 -15 -25z"/>
<path d="M1327 1063 c-19 -18 0 -31 73 -52 110 -32 142 -18 35 16 -44 14 -85
29 -91 34 -6 5 -14 6 -17 2z"/>
<path d="M2665 1045 c-36 -11 -40 -15 -38 -45 2 -42 15 -55 41 -41 11 6 32 11
46 11 29 0 33 19 16 64 -11 29 -10 29 -65 11z m47 -32 c4 -21 -52 -46 -64 -28
-13 17 -9 33 10 38 35 9 51 7 54 -10z"/>
<path d="M2024 1038 c-2 -3 10 -11 26 -17 30 -10 30 -10 30 -90 0 -47 4 -81
10 -81 6 0 10 37 10 90 l0 90 27 0 c14 0 23 3 19 8 -9 9 -116 10 -122 0z"/>
<path d="M2113 1006 c4 -10 7 -42 7 -72 0 -36 4 -54 13 -54 18 0 7 132 -12
138 -10 3 -12 0 -8 -12z"/>
<path d="M2035 981 c-3 -5 -1 -13 5 -16 7 -4 8 -24 4 -53 -4 -26 -3 -44 1 -40
11 11 25 81 19 101 -6 19 -19 22 -29 8z"/>
<path d="M2177 983 c-13 -12 -7 -64 8 -69 22 -9 19 -44 -4 -44 -11 0 -23 -4
-26 -10 -4 -6 25 -10 78 -10 68 0 86 3 91 16 5 13 1 14 -25 9 -22 -5 -34 -3
-40 6 -13 20 -11 29 6 29 11 0 15 11 15 40 l0 40 -48 0 c-27 0 -52 -3 -55 -7z
m83 -23 c0 -5 -16 -10 -35 -10 -19 0 -35 5 -35 10 0 6 16 10 35 10 19 0 35 -4
35 -10z m-10 -30 c-20 -13 -47 -13 -55 0 -4 6 9 10 32 10 28 0 34 -3 23 -10z
m-10 -40 c0 -11 -4 -20 -10 -20 -5 0 -10 9 -10 20 0 11 5 20 10 20 6 0 10 -9
10 -20z"/>
<path d="M1065 3921 c-57 -24 -75 -91 -35 -131 15 -15 33 -20 73 -20 75 0 102
-33 53 -65 -20 -13 -29 -14 -46 -5 -20 11 -21 10 -15 -12 4 -12 9 -25 11 -27
8 -9 66 24 84 47 26 32 25 63 0 95 -18 22 -30 26 -83 29 -55 3 -62 5 -65 25
-4 25 27 46 53 37 13 -5 16 -2 14 11 -5 22 -17 26 -44 16z"/>
<path d="M808 3723 c-26 -21 -47 -40 -47 -43 -1 -13 152 -185 162 -182 36 11
36 25 2 65 -19 22 -33 42 -31 44 2 2 28 -6 59 -18 l56 -21 26 20 25 20 -71 22
c-53 16 -69 24 -60 33 30 30 -6 97 -52 97 -12 0 -43 -17 -69 -37z m58 -11 c19
-12 34 -50 28 -66 -9 -25 -27 -19 -57 18 -25 32 -26 36 -10 45 22 13 25 13 39
3z"/>
<path d="M3452 3653 c-64 -53 -90 -79 -82 -87 7 -7 20 -1 42 20 18 16 45 40
61 54 l27 24 -15 -50 c-8 -27 -20 -66 -27 -87 -6 -20 -9 -39 -7 -42 3 -2 38 9
78 25 40 17 77 30 83 30 5 0 -12 -27 -38 -61 l-47 -61 23 -21 c15 -15 24 -18
27 -10 2 6 34 53 70 103 37 53 62 95 56 101 -5 5 -43 -5 -91 -23 -45 -17 -85
-29 -88 -26 -3 4 6 44 20 89 23 77 25 100 8 99 -4 -1 -49 -35 -100 -77z"/>
<path d="M622 3530 l-43 -50 33 -28 c18 -16 60 -52 92 -81 l59 -51 25 22 c38
36 64 77 56 89 -5 8 -16 1 -34 -21 l-27 -34 -31 25 c-38 30 -39 36 -6 70 21
22 22 27 10 32 -10 4 -23 -5 -36 -23 l-21 -30 -30 22 c-35 26 -35 29 -4 66 22
26 24 42 6 42 -3 0 -25 -22 -49 -50z"/>
<path d="M495 3370 c-4 -6 18 -43 48 -83 30 -39 51 -73 46 -75 -5 -2 -45 6
-90 17 -78 20 -83 20 -95 3 -7 -9 -12 -21 -11 -26 2 -5 58 -21 125 -36 162
-35 165 -31 77 92 -37 51 -70 99 -72 106 -6 15 -20 16 -28 2z"/>
<path d="M3735 3348 c-66 -17 -122 -32 -124 -34 -3 -2 0 -9 6 -15 9 -9 20 -8
45 0 31 11 34 10 60 -20 l27 -33 -20 -33 c-20 -32 -20 -35 -4 -59 l17 -26 37
64 c21 36 52 86 70 112 18 26 30 54 27 62 -6 17 5 18 -141 -18z m54 -43 c-22
-36 -32 -37 -49 -5 -9 17 -6 21 22 29 18 5 36 10 40 10 4 1 -2 -15 -13 -34z"/>
<path d="M3883 3131 c-72 -33 -93 -110 -50 -186 17 -30 30 -41 52 -43 l30 -4
-28 22 c-41 32 -51 64 -32 104 19 39 65 68 112 69 46 1 88 -42 79 -84 -4 -23
-2 -26 15 -22 17 5 20 11 15 36 -9 43 -53 97 -92 113 -43 18 -50 17 -101 -5z"/>
<path d="M320 3064 c-12 -31 -12 -34 -1 -34 6 0 55 -22 111 -49 l102 -48 11
25 c9 20 9 26 -1 30 -7 2 -58 26 -113 53 l-100 49 -9 -26z"/>
<path d="M247 2896 c-4 -9 17 -20 70 -36 41 -13 76 -27 78 -30 2 -3 -43 -25
-100 -49 -97 -41 -131 -66 -102 -76 6 -2 56 -20 111 -40 110 -39 116 -40 116
-22 0 7 -34 24 -77 38 -90 29 -92 26 52 85 111 46 108 56 -30 105 -60 21 -111
39 -111 39 -1 0 -4 -6 -7 -14z"/>
<path d="M3896 2807 c3 -10 20 -17 42 -19 32 -3 38 -8 51 -42 16 -41 13 -46
-37 -75 -10 -5 -11 -16 -5 -39 l8 -31 100 80 c55 44 101 86 103 94 4 16 -14
21 -113 30 -38 3 -89 9 -113 12 -36 5 -42 3 -36 -10z m184 -35 c0 -5 -13 -18
-29 -30 -25 -18 -30 -19 -35 -6 -13 34 -6 44 29 44 19 0 35 -4 35 -8z"/>
<path d="M150 2543 c0 -16 12 -21 86 -30 96 -12 127 -31 127 -79 0 -32 -34
-64 -67 -64 -11 1 -53 6 -93 13 l-71 13 -4 -27 c-4 -27 -3 -27 69 -38 92 -14
119 -14 144 -1 25 14 49 62 49 99 0 70 -39 100 -145 115 -27 4 -60 10 -72 13
-18 4 -23 1 -23 -14z"/>
<path d="M4096 2536 c-54 -10 -74 -18 -92 -40 -28 -32 -31 -83 -9 -126 26 -51
58 -58 194 -44 50 6 61 10 59 23 -2 9 -12 15 -23 14 -127 -16 -176 -15 -195 2
-20 18 -26 60 -12 81 13 20 46 32 107 39 87 10 95 13 95 41 0 28 -14 29 -124
10z"/>
<path d="M1230 567 c0 -8 9 -22 20 -32 23 -21 25 -16 8 20 -12 27 -28 34 -28
12z"/>
<path d="M3093 570 c-25 -10 -27 -18 -15 -38 5 -7 17 -10 28 -7 18 6 18 6 2
-8 -25 -20 -22 -30 3 -16 16 8 20 8 17 -1 -2 -6 -24 -20 -48 -30 -31 -14 -38
-15 -23 -4 12 9 20 21 17 29 -9 21 -53 -6 -56 -35 -2 -15 -10 -26 -23 -29 -17
-3 -18 -2 -5 14 14 16 13 17 -10 11 -23 -6 -23 -6 -7 7 9 8 17 17 17 20 0 4
-8 4 -17 1 -15 -5 -15 -3 1 10 23 19 8 21 -28 5 l-25 -12 19 -36 c16 -33 17
-38 3 -47 -13 -8 -12 -12 6 -34 l20 -25 1 27 c0 24 9 32 83 68 88 42 113 48
120 28 8 -22 19 -1 12 22 -4 13 -12 19 -21 16 -9 -3 -17 8 -25 34 -13 43 -13
43 -46 30z m12 -20 c-3 -5 -12 -10 -18 -10 -7 0 -6 4 3 10 19 12 23 12 15 0z"/>
<path d="M3040 543 c0 -7 -9 -13 -19 -13 -14 0 -19 -6 -18 -20 2 -24 6 -25 34
-2 17 12 20 21 13 32 -6 10 -10 11 -10 3z"/>
<path d="M1293 492 c-8 -20 -19 -47 -24 -59 -6 -15 -14 -20 -28 -16 -40 10
-21 -16 20 -28 32 -10 37 -14 24 -22 -9 -5 -27 -6 -41 -3 -17 5 -24 2 -24 -8
0 -23 28 -27 70 -10 39 16 41 15 86 -11 25 -15 52 -24 61 -21 14 6 14 8 -2 20
-18 13 -17 15 8 59 15 25 27 48 27 51 0 3 -18 15 -40 26 -23 12 -38 25 -35 30
3 5 0 12 -6 16 -6 3 -14 2 -18 -4 -5 -8 -15 -7 -35 3 -27 14 -28 14 -43 -23z
m35 -23 c-10 -6 -18 -14 -18 -19 0 -5 8 -11 18 -13 10 -3 6 -5 -11 -6 -18 -1
-26 -5 -21 -12 3 -6 17 -9 29 -7 16 4 22 1 18 -9 -3 -7 0 -13 6 -13 6 0 11 6
12 13 0 6 5 2 11 -10 6 -13 18 -23 27 -23 10 0 12 -3 5 -10 -11 -11 -64 6 -64
20 0 4 -13 10 -30 14 -36 7 -37 14 -9 68 16 31 23 38 32 29 9 -9 8 -15 -5 -22z
m42 -8 c0 -6 -4 -13 -10 -16 -5 -3 -10 1 -10 9 0 9 5 16 10 16 6 0 10 -4 10
-9z m64 -7 c13 -5 13 -9 -1 -40 -19 -38 -25 -41 -44 -18 -12 15 -11 16 8 10
17 -5 21 -3 19 11 -2 10 -11 17 -20 17 -16 -2 -21 8 -9 19 8 9 26 9 47 1z"/>
<path d="M1175 489 c-9 -14 -7 -15 38 -22 45 -7 49 7 6 22 -39 13 -36 13 -44
0z"/>
<path d="M3064 436 c-28 -13 -55 -29 -58 -35 -10 -16 -1 -14 44 9 22 11 40 16
40 10 0 -5 -7 -10 -15 -10 -8 0 -12 -6 -9 -13 3 -8 -17 -23 -51 -40 -30 -15
-55 -33 -55 -41 0 -10 17 -5 57 20 31 19 63 34 70 34 19 0 16 -27 -4 -34 -11
-5 -13 -10 -6 -17 19 -19 43 2 43 36 0 34 13 45 54 45 23 0 64 35 53 46 -3 3
-31 -6 -62 -21 -31 -14 -59 -24 -62 -22 -2 3 3 17 12 31 21 32 14 32 -51 2z"/>
<path d="M1136 401 c-8 -13 11 -18 45 -13 16 2 26 8 23 13 -7 12 -61 12 -68 0z"/>
<path d="M1780 350 c0 -49 -24 -125 -47 -148 -17 -17 -21 -28 -14 -35 16 -16
49 19 62 65 10 39 11 39 48 33 36 -6 39 -5 45 22 4 15 9 35 12 45 4 13 -6 18
-46 27 -64 14 -60 14 -60 -9z m58 -6 c12 -4 22 -11 22 -16 0 -14 -53 -5 -58
10 -4 13 2 15 36 6z m0 -40 c32 -9 27 -24 -7 -24 -30 0 -46 12 -34 24 8 7 12
7 41 0z"/>
<path d="M2452 328 c3 -32 2 -33 -49 -42 -36 -6 -53 -14 -53 -23 0 -10 6 -13
16 -9 9 3 33 9 55 12 38 6 39 6 39 -23 0 -34 -33 -70 -74 -81 -36 -10 -37 -26
0 -30 24 -2 39 4 63 28 17 17 31 40 31 51 0 26 9 24 56 -10 56 -41 77 -45 105
-22 l24 20 -30 1 c-35 0 -124 39 -143 62 -11 14 -7 17 30 23 62 9 78 15 78 26
0 6 -13 8 -30 5 -94 -18 -87 -19 -93 14 -9 41 -29 39 -25 -2z"/>
<path d="M1350 332 c0 -25 21 -62 34 -62 25 0 23 14 -6 44 -15 16 -28 24 -28
18z"/>
<path d="M1920 319 c0 -13 -3 -33 -6 -45 -5 -18 0 -22 36 -28 l42 -7 -6 -42
c-4 -23 -10 -53 -13 -66 -4 -17 -2 -22 8 -19 8 3 18 34 25 79 7 41 16 89 19
107 7 29 5 32 -17 32 -14 0 -40 3 -57 6 -28 6 -31 4 -31 -17z m79 -8 c7 -5 9
-11 5 -14 -13 -8 -64 4 -64 14 0 11 41 11 59 0z m1 -41 c0 -5 -13 -10 -29 -10
-17 0 -33 5 -36 10 -4 6 8 10 29 10 20 0 36 -4 36 -10z"/>
<path d="M14281 3851 c-8 -6 -7 -17 4 -44 8 -20 15 -39 15 -42 0 -3 -42 -5
-92 -6 -51 0 -101 -4 -111 -7 -16 -7 -16 -9 -1 -31 12 -17 23 -22 43 -18 21 4
35 -4 79 -48 30 -30 51 -58 48 -64 -4 -6 -37 -29 -74 -51 -66 -40 -65 -41 14
-25 14 3 43 17 64 31 l38 26 52 -41 c53 -42 89 -51 109 -27 9 11 5 16 -20 26
-35 15 -89 57 -89 70 0 9 165 130 178 130 5 0 17 9 27 20 18 20 17 20 -82 20
l-101 0 -19 37 c-19 37 -59 58 -82 44z m91 -176 l-47 -44 -32 37 c-18 20 -32
40 -33 45 0 4 36 7 79 7 l80 0 -47 -45z"/>
<path d="M14634 3809 c-12 -19 21 -39 74 -46 56 -6 58 -10 46 -72 l-6 -31 -84
0 c-45 0 -86 -5 -89 -10 -9 -14 57 -40 102 -40 56 0 64 -9 52 -53 l-10 -37
-79 0 c-43 0 -81 -4 -85 -9 -7 -12 44 -28 112 -37 28 -3 54 -12 57 -20 3 -7
14 -18 25 -24 29 -15 47 16 77 140 13 57 36 125 51 152 l26 48 -23 25 c-22 24
-29 25 -131 25 -67 0 -110 -4 -115 -11z"/>
<path d="M13865 3789 c-10 -16 25 -308 44 -363 21 -64 41 -72 41 -18 0 50 17
68 72 77 44 7 98 30 98 42 0 3 -34 3 -75 -1 -83 -8 -83 -7 -87 54 l-3 34 55 9
c30 5 64 16 75 24 18 13 12 14 -60 11 l-80 -3 -3 41 -3 41 66 17 c103 28 85
44 -52 45 -46 0 -85 -4 -88 -10z"/>
<path d="M7144 3765 c-6 -16 -2 -47 11 -77 7 -17 -3 -18 -116 -19 -186 -2
-215 -13 -165 -64 29 -29 64 -32 109 -9 22 12 68 18 162 22 117 4 159 1 331
-25 25 -4 39 2 68 27 20 18 36 36 36 41 0 5 -67 9 -148 9 -148 0 -149 0 -160
25 -12 27 -87 85 -109 85 -7 0 -16 -7 -19 -15z"/>
<path d="M6287 3662 c-36 -37 -37 -39 -19 -55 19 -17 120 -39 243 -52 70 -7
139 11 139 37 0 8 -58 31 -153 61 -84 26 -157 47 -163 47 -5 0 -27 -17 -47
-38z"/>
<path d="M9688 3663 c-2 -5 -1 -91 2 -193 l5 -185 37 -9 c22 -6 105 -5 210 0
95 5 175 8 178 6 3 -2 6 -85 8 -185 3 -205 5 -222 28 -231 21 -8 41 9 65 55
17 35 19 62 19 339 0 186 4 309 10 320 9 17 3 23 -51 50 -53 27 -65 30 -88 20
-16 -6 -98 -12 -189 -13 -92 -1 -162 -6 -162 -11 0 -6 -13 2 -28 17 -29 28
-38 32 -44 20z m410 -85 c7 -7 12 -26 12 -44 0 -41 -10 -44 -182 -44 l-138 0
0 44 c0 43 1 45 33 49 80 10 263 7 275 -5z m-34 -134 l46 -7 0 -42 0 -42 -52
-7 c-29 -3 -104 -6 -165 -6 -112 0 -113 0 -119 25 -3 14 -3 36 0 50 6 23 11
24 89 28 45 1 98 4 118 5 20 1 57 -1 83 -4z"/>
<path d="M11772 3658 c-8 -8 -12 -44 -12 -100 l0 -88 -159 0 c-120 0 -161 -3
-170 -13 -14 -17 18 -49 71 -72 33 -13 42 -13 75 -1 21 8 68 17 106 20 76 6
78 4 51 -65 -19 -46 -119 -135 -188 -167 -97 -45 -199 -52 -266 -17 -37 19
-46 14 -55 -25 -10 -45 2 -67 42 -81 91 -30 271 16 380 98 43 32 121 115 142
152 7 11 16 10 52 -6 98 -44 399 -298 449 -379 34 -55 53 -60 103 -26 23 16
78 48 122 73 l80 44 -45 7 c-25 3 -70 7 -101 7 -54 1 -59 3 -135 67 -97 81
-317 230 -401 273 -35 17 -63 36 -63 41 0 16 221 12 269 -5 41 -14 43 -14 69
12 l26 26 -28 22 c-27 21 -34 22 -191 17 l-163 -5 5 64 c6 88 -31 161 -65 127z"/>
<path d="M9405 3634 c-33 -7 -106 -13 -162 -14 -56 0 -104 -4 -107 -9 -4 -5 8
-21 26 -36 28 -24 37 -26 73 -19 22 4 78 8 125 8 l85 1 3 -47 c2 -27 2 -48 0
-49 -2 0 -56 -6 -121 -12 l-118 -13 -19 33 c-15 26 -26 33 -50 33 -42 0 -46
-18 -20 -96 19 -56 22 -82 18 -154 -4 -56 -11 -95 -22 -111 -24 -38 -85 -67
-167 -81 -94 -15 -100 -19 -87 -66 12 -46 33 -63 67 -55 55 12 179 85 224 131
43 44 49 55 57 112 5 35 14 66 20 70 7 4 75 10 151 12 77 3 143 9 147 12 4 4
9 71 12 149 3 78 8 147 13 154 9 14 -48 63 -71 62 -9 -1 -44 -7 -77 -15z m43
-261 c4 -55 -7 -60 -136 -64 l-102 -4 -1 30 c-1 30 1 58 5 62 3 4 198 21 216
19 10 -1 16 -15 18 -43z"/>
<path d="M7430 3530 c-31 -17 -58 -19 -239 -20 -165 0 -215 3 -258 17 -45 14
-56 15 -63 3 -10 -16 -3 -35 24 -73 21 -29 34 -114 35 -229 1 -78 -10 -83
-152 -74 -104 6 -109 6 -105 -12 6 -22 4 -23 -191 -77 -69 -19 -138 -35 -155
-36 -25 0 -38 -9 -64 -45 l-32 -44 47 -30 c26 -17 52 -30 58 -30 6 0 49 18 96
41 167 81 323 141 361 140 21 -1 61 5 90 14 40 11 103 15 273 15 245 0 306 -9
378 -59 95 -64 220 -111 300 -111 36 0 65 8 110 33 62 32 147 104 147 124 0 6
-64 12 -172 16 -148 5 -353 28 -366 42 -3 2 0 60 5 128 7 102 13 129 31 154
12 17 22 36 22 42 0 12 -93 75 -125 84 -11 3 -35 -2 -55 -13z m-232 -147 l3
-73 -114 0 -115 0 -7 56 c-4 37 -3 60 5 70 14 15 70 20 70 5 0 -9 8 -19 71
-94 15 -17 31 -27 37 -23 18 11 15 19 -22 74 l-34 51 32 4 c70 9 71 9 74 -70z
m134 21 c-4 -74 -15 -94 -52 -94 -29 0 -30 2 -30 44 0 24 3 58 6 75 6 28 10
31 43 31 l37 0 -4 -56z m148 34 c17 -18 20 -31 16 -58 -3 -19 -6 -48 -6 -64 0
-23 -3 -27 -12 -18 -7 7 -36 12 -66 12 -48 0 -53 2 -47 18 4 9 12 43 18 75 10
56 11 57 43 57 21 0 41 -8 54 -22z m-320 -163 c0 -11 -107 -75 -127 -75 -28 0
-38 -17 -23 -35 24 -29 68 -18 122 33 28 26 54 56 59 67 5 13 8 -5 8 -52 l1
-73 -97 0 c-54 0 -104 4 -112 9 -7 5 -16 29 -18 55 -5 41 -3 46 14 46 10 0 23
4 29 9 15 15 144 29 144 16z m284 -1 l48 -7 -7 -61 c-4 -34 -11 -63 -15 -66
-4 -3 -56 -4 -114 -2 l-106 3 0 70 0 69 74 0 c40 0 94 -3 120 -6z"/>
<path d="M7312 3228 c17 -25 57 -50 70 -42 19 12 6 36 -27 50 -50 20 -60 18
-43 -8z"/>
<path d="M13732 3388 c-5 -7 -18 -44 -27 -83 -10 -38 -21 -74 -25 -80 -11 -13
24 -55 45 -55 29 0 65 46 65 83 0 42 1 42 166 58 124 11 822 14 879 3 l33 -6
7 -89 c4 -49 11 -91 15 -94 10 -6 66 56 74 82 11 33 23 142 17 151 -19 28 -77
31 -488 19 -606 -17 -702 -16 -714 6 -12 20 -32 22 -47 5z"/>
<path d="M6498 3385 c-3 -3 -64 -5 -136 -6 l-131 0 -31 -35 c-24 -28 -28 -39
-20 -49 14 -16 95 -35 153 -35 56 0 262 58 290 81 22 19 22 19 3 34 -19 14
-116 22 -128 10z"/>
<path d="M14290 3270 c-145 -14 -221 -31 -218 -47 6 -30 34 -38 80 -25 24 7
87 20 141 29 78 14 99 15 110 4 18 -19 -87 -109 -120 -103 -21 4 -23 1 -23
-33 l0 -38 -173 7 c-143 6 -176 5 -185 -7 -9 -11 -7 -18 11 -34 36 -33 41 -33
143 -18 55 8 122 15 151 15 l52 0 -10 -32 c-20 -72 -137 -132 -302 -154 -183
-24 -312 -28 -397 -11 -41 8 -77 13 -80 10 -3 -3 21 -29 52 -58 80 -75 147
-99 254 -92 136 10 362 95 455 172 43 36 67 74 74 121 l7 46 116 -7 c63 -4
140 -13 169 -20 l54 -13 24 33 c14 17 25 35 25 38 0 4 -85 7 -190 7 -109 0
-190 4 -190 9 0 10 151 128 175 137 20 8 19 39 -1 58 -17 17 -70 19 -204 6z"/>
<path d="M6929 2944 c-35 -36 -85 -77 -111 -90 -46 -23 -69 -58 -54 -82 12
-20 68 -22 110 -3 63 29 176 113 195 144 16 28 15 29 -14 53 -58 48 -57 48
-126 -22z"/>
<path d="M7301 2951 c-35 -49 -28 -67 37 -100 31 -15 82 -36 114 -45 61 -17
163 -22 172 -7 9 14 -262 181 -292 181 -6 0 -20 -13 -31 -29z"/>
<path d="M7485 1895 l0 -290 158 0 157 0 0 37 0 37 -95 -6 -95 -6 0 101 0 102
93 0 93 0 0 35 0 35 -93 0 -93 0 0 91 0 91 95 -4 95 -3 0 35 0 35 -157 0 -158
0 0 -290z"/>
<path d="M8495 2176 c-75 -32 -117 -124 -95 -205 14 -52 42 -80 133 -130 42
-23 84 -52 92 -64 24 -35 19 -72 -16 -101 -52 -44 -125 -31 -160 29 -12 19
-24 35 -28 35 -3 0 -12 -23 -19 -52 -13 -58 -12 -61 48 -78 46 -13 127 -11
168 3 69 25 122 100 122 172 0 80 -35 121 -159 186 -78 41 -105 83 -80 127 30
55 127 55 157 1 9 -16 20 -29 24 -29 6 0 28 64 28 83 0 32 -157 48 -215 23z"/>
<path d="M9125 1898 l0 -288 95 -2 c219 -6 282 7 349 72 61 60 84 111 89 206
7 132 -38 227 -131 277 -39 20 -55 22 -222 22 l-180 0 0 -287z m274 222 c154
-44 176 -330 34 -426 -37 -25 -110 -38 -153 -29 l-30 7 0 222 c0 123 3 226 7
229 10 10 103 8 142 -3z"/>
<path d="M10340 1895 l0 -290 158 1 c172 0 210 10 280 68 129 110 131 343 4
458 -53 48 -110 59 -294 56 l-148 -3 0 -290z m311 209 c19 -11 45 -40 59 -65
22 -38 25 -57 25 -134 0 -74 -4 -98 -24 -138 -29 -59 -78 -93 -148 -102 -98
-13 -93 -27 -93 237 l0 231 74 -5 c48 -3 86 -12 107 -24z"/>
<path d="M10985 1895 l0 -290 158 0 157 0 0 37 0 37 -95 -6 -95 -6 0 101 0
102 93 0 92 0 0 35 0 35 -92 0 -93 0 0 91 0 91 95 -4 95 -3 0 35 0 35 -157 0
-158 0 0 -290z"/>
<path d="M11645 1898 l0 -288 95 -2 c235 -6 271 2 352 82 43 43 60 69 72 110
18 61 21 148 6 202 -17 59 -71 130 -120 158 -43 24 -51 25 -225 25 l-180 0 0
-287z m276 222 c77 -21 122 -103 121 -221 0 -108 -34 -179 -102 -214 -35 -18
-104 -28 -140 -20 l-30 7 0 229 0 229 58 0 c31 0 73 -5 93 -10z"/>
<path d="M12290 1895 l0 -290 157 2 157 1 3 36 2 35 -97 -2 -97 -2 -3 98 -3
97 96 0 95 0 0 35 0 35 -95 0 -95 0 0 91 0 91 98 -3 97 -3 2 34 2 35 -160 0
-159 0 0 -290z"/>
<path d="M14430 2181 c-133 -41 -213 -147 -214 -286 0 -90 15 -141 59 -192 75
-88 229 -126 358 -89 51 15 57 19 66 53 6 20 9 38 8 39 -2 2 -29 -10 -61 -26
-68 -35 -114 -37 -171 -11 -53 24 -91 70 -110 133 -51 172 35 338 176 338 47
0 105 -25 122 -52 7 -10 15 -18 19 -18 10 0 30 78 24 89 -16 26 -212 41 -276
22z"/>
<path d="M5348 1983 c3 -217 10 -257 49 -303 82 -98 291 -107 386 -17 51 48
64 108 71 330 l6 187 -39 0 -40 0 -3 -202 c-3 -182 -5 -207 -24 -242 -52 -101
-206 -101 -258 0 -19 36 -21 57 -21 241 l0 203 -65 0 -65 0 3 -197z"/>
<path d="M6000 1895 l0 -285 33 0 32 0 -2 197 -3 198 115 -120 c63 -66 143
-155 178 -197 58 -72 64 -77 102 -77 l40 -1 3 285 4 285 -37 0 -36 0 7 -197 6
-198 -46 45 c-26 25 -109 114 -184 198 -130 145 -138 152 -174 152 l-38 0 0
-285z"/>
<path d="M6650 1895 l0 -285 65 0 65 0 0 285 0 285 -65 0 -65 0 0 -285z"/>
<path d="M6880 2176 c0 -3 27 -71 59 -153 32 -81 81 -208 107 -280 l49 -133
40 0 40 0 29 83 c28 77 144 368 180 450 l16 37 -42 0 -43 -1 -32 -97 c-17 -53
-50 -146 -74 -207 l-42 -109 -25 64 c-14 36 -46 128 -72 205 l-48 140 -71 3
c-39 2 -71 1 -71 -2z"/>
<path d="M7905 1895 l0 -285 65 0 65 0 -3 132 c-3 155 -7 156 89 -16 l64 -115
78 -1 79 0 -35 48 c-19 26 -60 88 -90 139 l-56 92 44 20 c80 35 111 134 65
209 -32 52 -70 62 -227 62 l-138 0 0 -285z m224 216 c63 -63 8 -201 -79 -201
-19 0 -20 8 -20 110 l0 110 40 0 c26 0 47 -7 59 -19z"/>
<path d="M8845 1895 l0 -285 63 0 62 0 0 285 0 285 -62 0 -63 0 0 -285z"/>
<path d="M9943 2163 c-20 -59 -134 -336 -179 -435 l-52 -118 42 0 42 0 23 73
c13 39 28 78 33 85 7 8 40 12 98 12 58 0 91 -4 98 -12 5 -7 20 -46 33 -85 l23
-73 73 0 c40 0 73 2 73 4 0 2 -20 46 -43 97 -24 52 -77 178 -117 282 l-74 187
-33 0 c-23 0 -36 -6 -40 -17z m44 -235 c18 -45 30 -84 27 -87 -7 -8 -121 -7
-129 0 -6 7 55 169 64 169 3 0 21 -37 38 -82z"/>
<path d="M12986 2168 c-3 -7 -14 -92 -26 -188 -12 -96 -30 -219 -39 -272 l-17
-98 37 0 37 0 6 78 c19 231 28 293 41 275 6 -10 47 -93 91 -185 85 -180 101
-197 127 -135 8 17 47 101 88 186 86 180 81 183 101 -61 l12 -158 69 0 70 0
-7 43 c-17 99 -45 310 -57 415 l-12 112 -32 0 c-32 0 -34 -2 -130 -197 l-97
-197 -28 49 c-15 27 -59 115 -96 197 -68 147 -69 148 -102 148 -18 0 -34 -6
-36 -12z"/>
<path d="M13860 2169 c0 -16 -106 -279 -172 -424 -32 -71 -58 -131 -58 -133 0
-2 19 -2 42 0 l41 3 25 75 c14 41 30 78 36 82 13 9 158 11 180 2 8 -3 27 -41
41 -85 l27 -79 73 0 74 0 -38 84 c-42 90 -147 348 -177 434 -17 50 -19 52 -56
52 -21 0 -38 -5 -38 -11z m59 -276 l20 -52 -29 -6 c-16 -3 -49 -3 -73 0 l-44
7 36 90 36 91 17 -39 c9 -21 26 -62 37 -91z"/>
<path d="M14936 2052 c-27 -70 -78 -192 -113 -272 -36 -80 -67 -151 -70 -158
-4 -10 5 -13 37 -10 l43 3 25 75 c14 41 30 78 36 82 13 9 158 11 180 2 8 -3
27 -41 41 -85 l27 -79 73 0 74 0 -39 84 c-47 101 -190 459 -190 475 0 6 -17
11 -37 11 l-38 0 -49 -128z m103 -159 l20 -52 -29 -6 c-16 -3 -49 -3 -73 0
l-44 7 36 90 36 91 17 -39 c9 -21 26 -62 37 -91z"/>
<path d="M15378 1993 c3 -243 6 -266 44 -309 54 -61 100 -79 203 -79 78 0 98
4 140 26 95 48 111 99 118 372 l5 177 -39 0 -39 0 0 -182 c0 -101 -5 -200 -11
-221 -6 -22 -25 -55 -43 -74 -28 -31 -40 -37 -87 -40 -68 -5 -115 18 -143 73
-19 36 -21 57 -21 241 l0 203 -65 0 -65 0 3 -187z"/>
<path d="M9088 1106 c-60 -22 -88 -45 -109 -89 -34 -76 -20 -156 37 -208 16
-14 59 -42 96 -63 106 -58 134 -111 84 -161 -51 -51 -149 -38 -181 24 -8 17
-20 31 -24 31 -5 0 -14 -23 -20 -52 -13 -58 -11 -61 49 -78 55 -16 141 -12
185 9 76 35 115 95 115 177 0 81 -28 114 -154 185 -89 49 -111 81 -94 131 13
36 35 48 88 48 41 0 79 -25 93 -61 5 -12 7 -12 15 0 19 26 25 83 10 92 -45 29
-131 36 -190 15z"/>
<path d="M11171 1105 c-97 -27 -163 -83 -203 -170 -32 -69 -32 -199 -2 -266
27 -58 84 -116 143 -143 67 -31 236 -30 302 0 62 29 123 86 149 139 43 89 43
220 0 305 -25 50 -91 105 -149 125 -67 24 -175 28 -240 10z m190 -68 c19 -12
45 -43 59 -67 22 -40 25 -56 25 -155 0 -105 -2 -113 -31 -165 -39 -68 -80 -94
-150 -94 -69 0 -123 35 -155 101 -20 40 -24 64 -23 143 0 81 3 103 26 151 36
79 78 107 164 108 38 1 60 -5 85 -22z"/>
<path d="M13953 1110 c-96 -20 -178 -83 -220 -167 -22 -47 -27 -69 -27 -137 0
-45 6 -99 13 -120 19 -56 92 -129 154 -157 70 -30 193 -37 269 -15 49 14 56
19 66 52 15 51 7 59 -32 29 -77 -58 -184 -54 -256 11 -50 45 -70 105 -70 208
0 89 25 161 71 203 67 61 185 58 243 -6 11 -12 22 -21 26 -21 7 0 34 90 28 95
-31 24 -196 40 -265 25z"/>
<path d="M5798 888 c5 -252 12 -284 76 -333 51 -39 101 -54 178 -55 80 0 162
27 201 68 46 48 59 96 64 227 2 66 5 164 7 218 l3 97 -42 0 -42 0 5 -158 c6
-213 -7 -294 -57 -343 -42 -42 -92 -55 -153 -39 -100 28 -125 109 -114 378 l6
162 -68 0 -68 0 4 -222z"/>
<path d="M6470 810 l0 -300 35 0 35 0 2 204 3 203 123 -133 c68 -73 149 -164
180 -203 54 -66 59 -70 100 -70 l42 -1 0 300 0 300 -35 0 -35 0 7 -212 6 -213
-80 85 c-92 98 -248 272 -279 313 -18 22 -30 27 -63 27 l-40 0 -1 -300z"/>
<path d="M7150 810 l0 -300 68 0 67 0 0 300 0 300 -67 0 -68 0 0 -300z"/>
<path d="M7396 1073 c24 -55 189 -482 203 -526 12 -35 15 -37 54 -37 l42 0 59
163 c33 89 84 218 114 287 29 69 56 131 59 138 4 8 -8 12 -40 12 l-46 0 -16
-57 c-22 -75 -125 -356 -135 -366 -7 -8 -59 125 -123 318 l-34 100 -77 3 -77
3 17 -38z"/>
<path d="M8015 808 l0 -303 164 1 164 2 1 37 1 37 -95 -4 -95 -3 -3 108 -3
108 96 -7 95 -7 0 40 0 39 -95 -4 -95 -4 0 96 0 96 98 0 98 0 0 35 0 35 -165
0 -166 0 0 -302z"/>
<path d="M8455 810 l0 -300 68 0 69 0 -8 137 c-8 166 -8 166 91 -11 l70 -125
78 -1 c42 0 77 2 77 5 0 3 -15 26 -34 52 -33 48 -146 230 -146 238 0 2 13 6
30 10 44 10 76 40 95 90 22 56 14 104 -25 149 -40 44 -89 56 -242 56 l-123 0
0 -300z m227 229 c26 -14 40 -77 27 -123 -15 -54 -50 -86 -94 -86 l-35 0 0
109 c0 78 4 111 13 114 14 7 65 -2 89 -14z"/>
<path d="M9430 810 l0 -300 68 0 67 0 0 300 0 300 -67 0 -68 0 0 -300z"/>
<path d="M9660 1080 l0 -30 80 0 80 0 0 -270 0 -270 65 0 65 0 0 270 0 270 80
0 80 0 0 30 0 30 -225 0 -225 0 0 -30z"/>
<path d="M10165 1068 c14 -24 57 -102 95 -174 l70 -131 0 -127 0 -126 68 0 67
0 0 123 0 123 51 104 c28 58 69 138 92 178 l42 73 -46 -3 -46 -3 -54 -124
c-30 -69 -58 -129 -63 -134 -10 -10 -81 124 -116 216 l-18 47 -84 0 -84 0 26
-42z"/>
<path d="M11705 810 l0 -300 68 0 67 0 0 140 0 140 95 0 95 0 0 30 0 30 -95 0
-95 0 0 101 0 100 100 -3 100 -3 0 33 0 32 -167 0 -168 0 0 -300z"/>
<path d="M12426 1088 c-3 -13 -10 -66 -16 -118 -14 -117 -59 -419 -66 -442 -4
-15 1 -18 34 -18 l40 0 7 88 c4 48 13 134 19 192 l11 105 21 -35 c11 -19 54
-106 95 -192 78 -166 98 -188 120 -130 5 15 47 103 92 196 95 197 86 203 108
-66 l13 -158 73 0 c71 0 73 1 68 23 -16 73 -51 321 -71 515 l-7 63 -34 -3
c-34 -3 -36 -6 -91 -123 -32 -66 -77 -158 -100 -204 l-44 -84 -29 49 c-15 27
-61 120 -101 207 -72 156 -72 157 -105 157 -26 0 -34 -5 -37 -22z"/>
<path d="M13329 1073 c-23 -71 -137 -348 -188 -456 l-50 -108 46 3 46 3 27 80
c30 88 35 92 126 94 104 2 108 -1 139 -95 l28 -84 78 0 78 0 -46 98 c-36 77
-166 397 -196 485 -4 12 -17 17 -41 17 -31 0 -36 -4 -47 -37z m54 -235 l35
-87 -34 -7 c-33 -6 -101 0 -111 9 -3 4 51 149 64 170 7 12 7 12 46 -85z"/>
<path d="M14500 1088 c-5 -13 -35 -88 -66 -168 -31 -80 -83 -203 -116 -275
-32 -71 -58 -131 -58 -132 0 -2 19 -3 43 -3 l43 0 27 84 28 85 45 7 c60 9 155
-1 166 -18 4 -7 18 -46 31 -85 l22 -73 77 0 77 0 -18 43 c-10 23 -31 69 -46
102 -32 71 -134 328 -160 403 -18 49 -21 52 -52 52 -25 0 -36 -6 -43 -22z m48
-252 c36 -90 34 -96 -38 -95 -82 1 -83 2 -43 102 20 49 39 85 43 80 4 -4 21
-44 38 -87z"/>
<path d="M14912 888 c3 -141 9 -234 17 -253 31 -75 111 -126 213 -133 133 -9
223 33 265 125 25 53 26 67 31 270 l5 213 -41 0 -40 0 1 -192 c2 -218 -6 -263
-57 -314 -57 -57 -169 -54 -220 6 -38 46 -48 120 -44 321 l3 179 -69 0 -68 0
4 -222z"/>
</g>
</svg>
